<?xml version="1.0" encoding="UTF-8" standalone="no"?>
<!-- Created with Inkscape (http://www.inkscape.org/) -->

<svg
   xmlns:svg="http://www.w3.org/2000/svg"
   xmlns="http://www.w3.org/2000/svg"
   version="1.0"
   width="595.27557"
   height="318.89764"
   viewBox="-44.369 -13.715 595.27559 318.89764"
   id="svg2242"
   xml:space="preserve"><defs
   id="defs7" />
<path
   d="M 213.772,-9.8724156 H 84.657 c -66.521,0 -125.026,55.3839996 -125.026,125.8180056 0,70.146 56.015,128.52303 127.178,128.52303 h 88.585 c 8.22,0.156 23.719,-2.362 35.25,-9.98 10.105,-6.679 15.122,-11.209 22.415,-22.01 L 302.617,92.456584 c 3.5,-5.583 6.271,-10.099 12.926,-15.653 7.466,-6.232 13.76,-7.949 23.475,-8.409 h 78.267 c 27.549,-1.19 51.067,21.335 51.067,48.913006 -0.005,27.521 -23.366,49.986 -50.864,48.914 h -66.729 c -13.249,0.569 -21.165,2.885 -32.63,9.535 -13.017,7.556 -18.495,14.382 -26.848,27.701 l -57.92,99.72503 h 90.004 l 22.697,-38.535 c 4.439,-7.655 8.571,-11.588 16.436,-15.653 6.954,-3.595 11.735,-4.695 19.567,-4.506 h 39.128 c 66.526,0 123.841,-55.74403 125.226,-124.62803 C 547.852,48.486584 491.633,-9.8714156 417.285,-9.8714156 h -93.521 c -14.671,0.081 -30.6,6.4299998 -36.221,10.13999985 C 278.872,5.9815842 269.494,14.167584 262.261,26.164584 L 192.562,147.32559 c -4.132,6.024 -6.458,9.197 -12.487,13.082 -7.26,4.687 -12.688,5.284 -21.063,5.815 H 84.657 c -26.364,-1.186 -46.763,-22.521 -46.763,-48.914 0,-26.392006 20.399,-47.728006 46.763,-48.913006 h 83.721"
   id="path3"
   style="fill:#388344" />
</svg>