<svg xmlns="http://www.w3.org/2000/svg" viewBox="0 0 760.55 251.41"><defs><style>.cls-1{fill:#1d8643;}.cls-1,.cls-2{fill-rule:evenodd;}.cls-2,.cls-3{fill:#1d1d1b;}</style></defs><title>CP_esquerda e direita</title><g id="Foreground"><path class="cls-1" d="M514.19,40a25,25,0,1,0,0,49.92h38.24c6.72,0,14.95-4.69,18.31-10.44L608,15.68C613.06,7.06,625.42,0,635.49,0h58.62c36.5,0,66.12,29.24,66.13,65.29s-29.57,65.29-66.06,65.28H671.72c-6.72,0-15,4.69-18.32,10.43l-11.64,19.87H593.88l32.34-55.28C631.26,97,643.59,90,653.67,90h40.49a25,25,0,1,0,0-49.92H648.22c-6.71,0-15,4.69-18.3,10.43l-37.57,64.45c-5,8.61-17.37,15.67-27.44,15.66H514.24c-36.49,0-66.09-29.25-66.11-65.31S477.68,0,514.17,0l69.14,0L559.93,40Z"/><path class="cls-2" d="M33.67,249.05,32,242a44.66,44.66,0,0,1-13.51,2.15c-5.79,0-10.36-3.65-10.36-11.8V220.88c0-8.43,4.57-11.79,10.36-11.79A44.61,44.61,0,0,1,32,211.22l1.65-7a50,50,0,0,0-15.23-2.36C8.15,201.87,0,208.65,0,220.09v13c0,11.43,8.15,18.23,18.44,18.23A49.77,49.77,0,0,0,33.67,249.05Z"/><path class="cls-2" d="M74.27,233.11v-12.8c0-11.37-8.43-18.37-18.51-18.37s-18.52,7-18.52,18.37v12.8c0,11.43,8.3,18.3,18.52,18.3S74.27,244.54,74.27,233.11Zm-8.14-.79c0,8.43-4.51,11.86-10.37,11.86S45.4,240.75,45.4,232.32V221.1c0-8.22,4.5-11.94,10.36-11.94s10.37,3.72,10.37,11.94Z"/><polygon class="cls-2" points="130.89 250.76 124.32 202.51 114.03 202.51 107.01 225.82 104.58 236.32 102.16 225.82 95.15 202.51 84.93 202.51 78.56 250.76 86.57 250.76 90.08 222.81 91.07 212.23 93.51 222.81 99.79 243.69 109.38 243.69 115.67 222.81 118.09 212.23 119.17 222.81 122.82 250.76 130.89 250.76"/><path class="cls-2" d="M171.21,236.47c0-4.36-1.72-8.44-7.22-11.09,4.28-2.5,5.5-5.79,5.5-9.29,0-7.57-5.65-13.58-15.44-13.58H138.39v48.25h16.87C165.49,250.76,171.21,244.4,171.21,236.47Zm-9.86-20.38c0,3.86-1.51,6.51-6.66,6.51h-8.15V209.72h7.51C159.34,209.72,161.35,212.3,161.35,216.09Zm1.7,20.38c0,4.14-2.29,7.07-7.79,7.07h-8.72V229.32h9.37C161.35,229.32,163.05,232.25,163.05,236.47Z"/><path class="cls-2" d="M213.17,233.11v-12.8c0-11.37-8.44-18.37-18.52-18.37s-18.52,7-18.52,18.37v12.8c0,11.43,8.3,18.3,18.52,18.3S213.17,244.54,213.17,233.11Zm-8.15-.79c0,8.43-4.5,11.86-10.37,11.86s-10.37-3.43-10.37-11.86V221.1c0-8.22,4.51-11.94,10.37-11.94S205,212.88,205,221.1Z"/><rect class="cls-3" x="221.39" y="202.51" width="8.15" height="48.25"/><path class="cls-2" d="M274.79,233.11v-12.8c0-11.37-8.44-18.37-18.52-18.37s-18.52,7-18.52,18.37v12.8c0,11.43,8.3,18.3,18.52,18.3S274.79,244.54,274.79,233.11Zm-8.15-.79c0,8.43-4.51,11.86-10.37,11.86s-10.36-3.43-10.36-11.86V221.1c0-8.22,4.5-11.94,10.36-11.94s10.37,3.72,10.37,11.94Z"/><path class="cls-2" d="M312,237.32c0-8.93-6.37-12.15-11.87-14.36-1.35-.58-2.64-1-3.93-1.58-3.36-1.43-6-3-6-6.57,0-3.23,2.43-5.72,7.36-5.72,3.79,0,7.15.92,11.51,2.36l2.14-6.86a40.85,40.85,0,0,0-13.65-2.72c-8.72,0-15.51,5-15.51,13.08,0,10,8,11.93,15.3,15.15,3.29,1.5,6.43,3.29,6.43,7.3s-3.5,6.72-7.87,6.72c-4,0-7.86-1-13.44-2.65l-1.57,7.08c5.08,1.65,9.44,2.79,15,2.79C304.17,251.34,312,246.69,312,237.32Z"/><path class="cls-2" d="M374.14,234.61V218.52c0-9.87-8-16.65-17.59-16.65-5.65,0-10.8,1.71-16.74,3.93v45h16.74C367.49,250.76,374.14,244.4,374.14,234.61Zm-8.23-.79c0,6.79-2.93,9.72-9.36,9.72H348V210.66a32,32,0,0,1,8.58-1.57c5.43,0,9.36,3.71,9.36,10.29Z"/><path class="cls-2" d="M410.23,250.76v-7.22H396.65c-4.58,0-7.52-3-7.52-7.07s2.44-7.15,7.52-7.15h12.58l.21-6.72H396.92c-5.13,0-7.43-3-7.43-6.51,0-3.79,2-6.37,7.37-6.37h13.37v-7.21H396.86c-10.08,0-15.52,6-15.52,13.58,0,4,2.22,7.44,6.29,9.87-4.28,2.5-6.65,6.21-6.65,10.51,0,7.93,6.08,14.29,15.67,14.29Z"/><path class="cls-2" d="M470.4,217.23c0-7.94-5.22-14.72-14.44-14.72H438.73v48.25h8.14V231.89H456C465.18,231.89,470.4,225.1,470.4,217.23Zm-8.15,0c0,4.87-2.15,7.66-6.29,7.66h-9.09V209.72H456C460.1,209.72,462.25,212.45,462.25,217.23Z"/><path class="cls-2" d="M512.78,233.11v-12.8c0-11.37-8.44-18.37-18.52-18.37s-18.51,7-18.51,18.37v12.8c0,11.43,8.29,18.3,18.51,18.3S512.78,244.54,512.78,233.11Zm-8.15-.79c0,8.43-4.5,11.86-10.37,11.86s-10.36-3.43-10.36-11.86V221.1c0-8.22,4.5-11.94,10.36-11.94s10.37,3.72,10.37,11.94Z"/><path class="cls-2" d="M553.31,250.76l-10.22-20.88a13.89,13.89,0,0,0,9.22-13.22c0-7.87-6.15-14.15-15.08-14.15H520.64v48.25h8.15V230.82h6.44l9.43,19.94Zm-9.15-34.1c0,4.29-2.5,7.15-6.93,7.15h-8.44V209.72h8.44C541.66,209.72,544.16,212.52,544.16,216.66Z"/><polygon class="cls-2" points="591.91 202.51 557.02 202.51 557.02 209.72 570.39 209.72 570.39 250.76 578.55 250.76 578.55 209.72 591.48 209.72 591.91 202.51"/><path class="cls-2" d="M632.87,234.61V202.44h-8.15v31.38c0,6.65-3.87,10.22-9.23,10.22s-9.36-3.57-9.36-10.22V202.44H598v32.17c0,9.93,7.87,16.73,17.52,16.73S632.87,244.54,632.87,234.61Z"/><path class="cls-2" d="M675.33,248.7V225H661.89v5.51l5.5.5v12.37a44.85,44.85,0,0,1-8.15.79c-5.79,0-10.36-3.58-10.36-11.8V220.88c0-8,4.57-11.79,10.36-11.79a48.46,48.46,0,0,1,13.66,2.21l1.86-6.86c-6.5-1.78-10.44-2.57-15.59-2.57-10.29,0-18.44,6.78-18.44,18.22v13c0,11.43,8.15,18.23,18.44,18.23A56.19,56.19,0,0,0,675.33,248.7Z"/><path class="cls-2" d="M725.16,250.76l-17.09-48.25H697.42l-17.09,48.25h8.23l4.71-14h18.88l4.72,14ZM710,230.24H695.42l7.29-21.59Z"/><polygon class="cls-2" points="760.55 243.54 738.67 243.54 738.67 202.51 730.52 202.51 730.52 250.76 759.9 250.76 760.55 243.54"/></g></svg>