<?xml version="1.0" encoding="utf-8"?>
<!-- Generator: Adobe Illustrator 15.0.0, SVG Export Plug-In . SVG Version: 6.00 Build 0)  -->
<!DOCTYPE svg PUBLIC "-//W3C//DTD SVG 1.1//EN" "http://www.w3.org/Graphics/SVG/1.1/DTD/svg11.dtd">
<svg version="1.1" id="Layer_1" xmlns="http://www.w3.org/2000/svg" xmlns:xlink="http://www.w3.org/1999/xlink" x="0px" y="0px"
	 width="340px" height="226.771px" viewBox="0 0 340 226.771" enable-background="new 0 0 340 226.771" xml:space="preserve">
<g>
	<g>
		<path d="M200.46,75.915l-4.184-15.451l-4.111,15.451h-2.191l-4.258-17.031h1.605l3.797,15.499h0.047l4.162-15.499h1.92
			l4.26,15.499h0.049l3.746-15.499h1.533l-4.209,17.031H200.46z"/>
		<path d="M217.114,68.858c0-1.727-1.119-2.652-2.652-2.652c-1.289,0-2.555,0.706-3.576,1.897v7.812h-1.484V58.884h1.459v7.834
			c0.975-1.169,2.289-1.825,3.844-1.825c2.506,0,3.895,1.533,3.895,3.893v7.13h-1.484V68.858z"/>
		<path d="M223.786,75.915h-1.484v-9.489h-1.703v-1.242h3.188V75.915z M222.935,60.002c0.705,0,1.291,0.584,1.291,1.289
			c0,0.707-0.586,1.291-1.291,1.291s-1.289-0.584-1.289-1.291C221.646,60.586,222.229,60.002,222.935,60.002z"/>
		<path d="M229.409,60.658v4.525h2.652v1.242h-2.652v7.275c0,0.997,0.705,1.045,1.533,1.045c0.68,0,1.119-0.072,1.119-0.072v1.241
			c0,0-0.779,0.099-1.656,0.099c-1.119,0-2.48-0.293-2.48-2.289v-7.299h-1.85v-1.242h1.85v-4.525H229.409z"/>
		<path d="M234.983,71c0.193,2.215,1.68,3.893,3.916,3.893c1.461,0,2.678-0.682,3.334-1.85h1.729
			c-0.9,1.947-2.846,3.164-5.062,3.164c-3.09,0-5.449-2.359-5.449-5.645s2.359-5.67,5.426-5.67c2.822,0,5.402,1.972,5.402,6.107
			H234.983z M235.032,69.784h7.59c-0.168-1.948-1.627-3.578-3.746-3.578C236.735,66.206,235.3,67.74,235.032,69.784z"/>
		<path d="M252.604,67.253c-0.779-0.681-1.582-1.12-2.725-1.12c-1.338,0-2.045,0.707-2.045,1.509c0,0.608,0.293,1.217,1.412,1.655
			l1.508,0.608c1.949,0.778,2.701,1.727,2.701,3.235c0,1.315-1.119,3.066-3.771,3.066c-1.85,0-3.113-0.682-3.965-1.509l0.803-1.095
			c0.803,0.803,1.994,1.362,3.211,1.362c1.484,0,2.264-0.851,2.264-1.825c0-1.047-0.682-1.483-2.238-2.117l-1.023-0.414
			c-1.678-0.681-2.359-1.63-2.359-2.869c0-1.484,1.314-2.848,3.576-2.848c1.582,0,2.799,0.705,3.48,1.338L252.604,67.253z"/>
		<path d="M265.091,69.199v6.716h-1.482v-7.13c0-1.653-1.023-2.579-2.557-2.579c-1.266,0-2.408,0.706-3.43,1.897v7.812h-1.484
			V65.184h1.459v1.534c0.926-1.12,2.092-1.825,3.648-1.825c1.803,0,2.994,0.803,3.506,2.068c1.166-1.412,2.434-2.068,3.99-2.068
			c2.529,0,3.818,1.533,3.818,3.893v7.13h-1.484v-7.13c0-1.653-1.021-2.579-2.529-2.579c-1.289,0-2.457,0.731-3.504,1.948
			C265.067,68.494,265.091,68.858,265.091,69.199z"/>
		<path d="M277.751,75.915h-1.484v-9.489h-1.703v-1.242h3.188V75.915z M276.901,60.002c0.703,0,1.289,0.584,1.289,1.289
			c0,0.707-0.586,1.291-1.289,1.291c-0.707,0-1.291-0.584-1.291-1.291C275.61,60.586,276.194,60.002,276.901,60.002z"/>
		<path d="M283.374,60.658v4.525h2.652v1.242h-2.652v7.275c0,0.997,0.707,1.045,1.535,1.045c0.678,0,1.117-0.072,1.117-0.072v1.241
			c0,0-0.779,0.099-1.654,0.099c-1.119,0-2.482-0.293-2.482-2.289v-7.299h-1.85v-1.242h1.85v-4.525H283.374z"/>
		<path d="M295.981,68.858c0-1.727-1.121-2.652-2.652-2.652c-1.289,0-2.555,0.706-3.576,1.897v7.812h-1.484V58.884h1.459v7.834
			c0.975-1.169,2.287-1.825,3.848-1.825c2.502,0,3.891,1.533,3.891,3.893v7.13h-1.484V68.858z"/>
	</g>
	<path d="M162.542,52.552c-0.408,0-0.738,0.331-0.738,0.739v111.008h-4.242l-22.23-111.153c-0.07-0.345-0.371-0.594-0.725-0.594
		h-5.588c-0.352,0-0.656,0.249-0.725,0.594l-22.23,111.153h-4.242V53.291c0-0.408-0.332-0.739-0.74-0.739H50.794
		c-0.408,0-0.738,0.331-0.738,0.739v111.744c0,0.408,0.33,0.74,0.738,0.74h50.277c0.004,0,0.006,0.002,0.01,0.002h5.588
		c0.354,0,0.654-0.249,0.725-0.595L129.626,54.03h4.375l22.23,111.152c0.068,0.346,0.371,0.595,0.723,0.595h5.588
		c0.408,0,0.74-0.332,0.74-0.74V53.291C163.282,52.883,162.95,52.552,162.542,52.552z"/>
</g>
</svg>
