<svg width="35" height="35" viewBox="0 0 35 35" fill="none" xmlns="http://www.w3.org/2000/svg">
<path d="M2.17012 34.6164C1.12258 34.6164 0.273926 33.7637 0.273926 32.7123V2.02311C0.273926 0.971401 1.12271 0.119141 2.17012 0.119141H32.734C33.7812 0.119141 34.6301 0.971401 34.6301 2.02311V32.7123C34.6301 33.7638 33.781 34.6164 32.734 34.6164H23.9792V21.2571H28.4449L29.1136 16.0508H23.9792V12.7269C23.9792 11.2195 24.396 10.1923 26.5487 10.1923L29.2944 10.1911V5.53455C28.8195 5.4711 27.1897 5.32935 25.2935 5.32935C21.3349 5.32935 18.6247 7.75562 18.6247 12.2113V16.0508H14.1475V21.2571H18.6247V34.6164H2.17012Z" fill="white"/>
</svg>
