<svg width="30" height="30" viewBox="0 0 30 30" fill="none" xmlns="http://www.w3.org/2000/svg">
<path d="M15.0001 0C6.71687 0 0 6.8854 0 15.3796C0 22.1749 4.29799 27.9399 10.258 29.9736C11.0077 30.1159 11.2829 29.6399 11.2829 29.2337C11.2829 28.867 11.269 27.6554 11.2625 26.3703C7.08946 27.3007 6.2089 24.5557 6.2089 24.5557C5.52656 22.778 4.54341 22.3053 4.54341 22.3053C3.18245 21.3507 4.646 21.3703 4.646 21.3703C6.15227 21.4786 6.94539 22.9552 6.94539 22.9552C8.28325 25.3065 10.4545 24.6267 11.3105 24.2337C11.4451 23.24 11.8338 22.561 12.2628 22.1772C8.93107 21.7883 5.42869 20.4695 5.42869 14.5764C5.42869 12.8972 6.01466 11.5252 6.97421 10.4482C6.81846 10.0605 6.30503 8.49653 7.11952 6.37806C7.11952 6.37806 8.37914 5.96471 11.2456 7.95456C12.4421 7.61379 13.7254 7.4429 15.0001 7.43704C16.2749 7.4429 17.5591 7.61379 18.7579 7.95456C21.6209 5.96471 22.8787 6.37806 22.8787 6.37806C23.6952 8.49653 23.1815 10.0605 23.0258 10.4482C23.9876 11.5252 24.5696 12.8972 24.5696 14.5764C24.5696 20.4835 21.0605 21.7842 17.7203 22.1649C18.2583 22.6422 18.7377 23.5782 18.7377 25.0131C18.7377 27.0707 18.7203 28.7269 18.7203 29.2337C18.7203 29.643 18.9904 30.1226 19.7507 29.9715C25.7075 27.9356 30 22.1726 30 15.3796C30 6.8854 23.2841 0 15.0001 0Z" fill="white"/>
</svg>
