<svg width="30" height="30" viewBox="0 0 30 30" fill="none" xmlns="http://www.w3.org/2000/svg">
<path fill-rule="evenodd" clip-rule="evenodd" d="M0 15C0 6.71573 6.71573 0 15 0C23.2843 0 30 6.71573 30 15C30 23.2843 23.2843 30 15 30C6.71573 30 0 23.2843 0 15ZM14.9784 11.0133C16.1972 11.0133 17.0193 11.5406 17.4881 11.9811L19.3199 10.19C18.1948 9.14279 16.7308 8.50001 14.9784 8.50001C12.4398 8.50001 10.2474 9.9589 9.18008 12.0822L9.18005 12.0822C8.74013 12.9633 8.48771 13.9528 8.48771 15C8.48771 16.0472 8.74013 17.0367 9.18005 17.9178L11.2859 16.2856C11.1489 15.8811 11.0695 15.4478 11.0695 15C11.0695 14.5522 11.1489 14.1189 11.2787 13.7144L11.2787 13.7145C11.8052 12.1472 13.262 11.0133 14.9784 11.0133ZM21.0723 13.8156C21.1661 14.22 21.2093 14.61 21.2093 15.1445C21.2093 17.1233 20.5026 18.7917 19.2766 19.9256C18.202 20.9222 16.7308 21.5 14.9784 21.5C12.4398 21.5 10.2546 20.0411 9.18728 17.9178L11.2859 16.2856C11.8052 17.8528 13.2619 18.9867 14.9784 18.9867C15.9447 18.9867 16.6803 18.7195 17.2284 18.3367C18.0938 17.73 18.4833 16.8272 18.5554 16.2278H14.9784V13.8156H21.0723Z" fill="white"/>
</svg>
