<svg width="35" height="35" viewBox="0 0 35 35" fill="none" xmlns="http://www.w3.org/2000/svg">
<path d="M33.2127 1.33338C32.3509 0.467847 31.3182 0.0352783 30.1151 0.0352783H4.66443C3.46094 0.0352783 2.42855 0.468004 1.56656 1.33338C0.704726 2.19851 0.273926 3.2353 0.273926 4.4435V29.9984C0.273926 31.2065 0.704648 32.2435 1.56656 33.1087C2.42855 33.974 3.46117 34.4069 4.66443 34.4069H30.1148C31.3177 34.4069 32.3507 33.974 33.2124 33.1087C34.0744 32.2435 34.5048 31.2065 34.5048 29.9984V4.4435C34.5048 3.23506 34.0744 2.19883 33.2127 1.33338ZM12.565 12.421C13.9094 11.1158 15.5252 10.4629 17.4121 10.4629C19.3136 10.4629 20.9366 11.1158 22.2814 12.421C23.6262 13.7264 24.2982 15.3041 24.2982 17.1539C24.2982 19.0035 23.6262 20.5813 22.2814 21.8863C20.9366 23.192 19.3141 23.8448 17.4121 23.8448C15.5253 23.8448 13.9097 23.1915 12.565 21.8863C11.2202 20.5812 10.5479 19.0035 10.5479 17.1539C10.5479 15.3041 11.2202 13.7264 12.565 12.421ZM30.6277 29.0813C30.6277 29.4689 30.4936 29.7932 30.2264 30.0545C29.9585 30.3155 29.6395 30.4461 29.2677 30.4461H5.44454C5.05831 30.4461 4.73492 30.3155 4.47514 30.0545C4.21498 29.7938 4.08501 29.4689 4.08501 29.0813V15.5803C4.08501 15.028 4.53273 14.5803 5.08501 14.5803H5.86252C6.53848 14.5803 7.02014 15.2395 6.9107 15.9066C6.82468 16.4309 6.78167 16.966 6.78167 17.5118C6.78167 20.3767 7.82155 22.8192 9.90155 24.841C11.9818 26.8621 14.4852 27.8731 17.412 27.8731C19.3435 27.8731 21.1262 27.4104 22.7611 26.4855C24.3954 25.5601 25.6871 24.3036 26.6387 22.7146C27.5896 21.1257 28.0651 19.3914 28.0651 17.5119C28.0651 16.966 28.0219 16.4309 27.9357 15.9065C27.8261 15.2395 28.3077 14.5804 28.9836 14.5804H29.6279C30.1802 14.5804 30.6279 15.0281 30.6279 15.5804L30.6277 29.0813ZM30.6277 9.09782C30.6277 9.53047 30.4792 9.89602 30.1815 10.1943C29.8845 10.4929 29.5207 10.6419 29.0896 10.6419H25.212C24.7814 10.6419 24.417 10.4928 24.12 10.1943C23.8229 9.89602 23.6744 9.53047 23.6744 9.09782V5.4059C23.6744 4.98815 23.8229 4.62643 24.12 4.32052C24.4171 4.01477 24.7814 3.8617 25.212 3.8617H29.0896C29.5207 3.8617 29.8846 4.01469 30.1815 4.32052C30.4791 4.62643 30.6277 4.98815 30.6277 5.4059V9.09782Z" fill="white"/>
</svg>
