<svg width="35" height="36" viewBox="0 0 35 36" fill="none" xmlns="http://www.w3.org/2000/svg">
<path d="M31.9623 0.825928H2.80197C1.40566 0.825928 0.273926 1.92764 0.273926 3.28743V32.719C0.273926 34.0788 1.40606 35.1815 2.80197 35.1815H31.9623C33.3583 35.1815 34.4887 34.0781 34.4887 32.719V3.28743C34.4887 1.92804 33.3583 0.825928 31.9623 0.825928ZM10.6469 29.5839H5.47726V14.0728H10.6469V29.5839ZM8.06259 11.9537H8.02782C6.29423 11.9537 5.17045 10.7632 5.17045 9.27284C5.17045 7.75243 6.32724 6.59424 8.0952 6.59424C9.86332 6.59424 10.9509 7.75211 10.9853 9.27284C10.9853 10.7635 9.86372 11.9537 8.06259 11.9537ZM29.2818 29.5839H24.1139V21.2849C24.1139 19.1996 23.3651 17.7767 21.4962 17.7767C20.0664 17.7767 19.2177 18.7366 18.845 19.6634C18.707 19.9944 18.6727 20.4574 18.6727 20.9197V29.5836H13.5058C13.5058 29.5836 13.5734 15.5273 13.5058 14.0725H18.6735V16.2716C19.3596 15.2149 20.5855 13.7076 23.3298 13.7076C26.7313 13.7076 29.2818 15.9232 29.2818 20.6897V29.5839ZM18.6401 16.3208C18.649 16.3063 18.6613 16.2886 18.6735 16.2716V16.3208H18.6401Z" fill="white"/>
</svg>
