<?xml version="1.0" encoding="utf-8"?>
<!-- Generator: Adobe Illustrator 21.1.0, SVG Export Plug-In . SVG Version: 6.00 Build 0)  -->
<svg version="1.1" id="Layer_1" xmlns="http://www.w3.org/2000/svg" xmlns:xlink="http://www.w3.org/1999/xlink" x="0px" y="0px"
	 viewBox="0 0 355.5 224.9" style="enable-background:new 0 0 355.5 224.9;" xml:space="preserve">
<style type="text/css">
	.st0{fill:none;stroke:#FFFFFF;stroke-width:1.2;stroke-miterlimit:10;}
</style>
<title>Asset 1</title>
<g id="Layer_2">
	<g id="Layer_1-2">
		<path class="st0" d="M153.9,12.5H42.4c-4.2,0-7.5,3.4-7.5,7.6c0,0,0,0,0,0l0.4,122.2v6c0,0.9-0.2,1.8-0.5,2.6c0,0,0,0.1,0,0.2
			s0,0,0,0.1c-1.2,2.7-3.8,4.5-6.8,4.6h-0.9l-8,0.2l-8.8,0.2l-4.2,0.1c-3.1,0-5.6,2.5-5.6,5.6c0,0,0,0,0,0v54.1
			c0,4.6,3.7,8.4,8.4,8.4c0,0,0,0,0,0h107c5.6,0,10.1-4.5,10.1-10.1v-83.5l-4.9,34.9c-0.4,2.8-3,4.8-5.8,4.4c0,0,0,0,0,0L61,162.4
			c-2.4-0.3-4-2.5-3.7-4.9l3-21.1l0,0c0,0,0-0.1,0-0.1h0.5c2,0.2,3.9-0.9,4.7-2.8h0.5c1.8,0.2,3.6-0.8,4.4-2.5H71
			c1.7,0.2,3.3-0.7,4.1-2.2h0.4c2.1,0.3,4-1.2,4.2-3.3l9-65.2c0.3-2,2.2-3.5,4.3-3.2l56.7,8c1.9,0.3,3.2,2,2.9,3.8l-1.6,11.6h0.7
			h0.8h1c0.4,0,0.7,0,1.1-0.1c0.4,0,0.9-0.2,1.2-0.3c0.5-0.2,1-0.4,1.4-0.7c0.6-0.4,1.1-0.8,1.5-1.4c1.2-1.3,1.9-3,1.9-4.8v-54
			C160.5,15.5,157.5,12.5,153.9,12.5C153.9,12.5,153.9,12.5,153.9,12.5z M153.6,21.2L51.1,19.4c-3.8,0-7,3-7,6.8l-1.6,112.4v1.2v2.7
			v1.6c0,0.8-0.2,1.7-0.5,2.4c0,0.1,0,0.1,0,0.2c-1.1,2.5-3.6,4.1-6.3,4.1h-8.3h-8.1h-3.9c-2.8,0-5.1,2.3-5.1,5.1l0,0l-0.9,49.7
			c-0.1,4.3,3.3,7.9,7.6,8c0,0,0,0,0,0l98.4,1.7c5.1,0.1,9.3-4,9.4-9.1l1.2-71.3v-0.8v-0.4v-2.4v-0.7v-0.5l0.7-41.8
			c0-2.6,2.1-4.6,4.7-4.6h20.6c0.3,0,0.7,0,1-0.1c0.4-0.1,0.8-0.2,1.2-0.3c0.5-0.2,0.9-0.4,1.3-0.6c0.5-0.3,1-0.7,1.4-1.1
			c0.9-1,1.5-2.2,1.6-3.5c0.1-0.3,0.1-0.6,0.1-0.9l0.9-49.7C159.7,24.1,157,21.3,153.6,21.2L153.6,21.2z M131.1,80.9
			c-2.8,0.1-5,2.3-5,5.1v44.8l-4.9,34.9c-0.4,2.8-3,4.8-5.8,4.4c0,0,0,0,0,0L61,162.4c-2.4-0.3-4-2.5-3.7-4.9l3-21.1l0,0
			c0,0,0-0.1,0-0.1h0.5c2,0.2,3.9-0.9,4.7-2.8h0.5c1.8,0.2,3.6-0.8,4.4-2.5H71c1.7,0.2,3.3-0.7,4.1-2.2h0.4c2.1,0.3,4-1.2,4.2-3.3
			l9-65.2c0.3-2,2.2-3.5,4.3-3.2l56.7,8c1.9,0.3,3.2,2,2.9,3.8l-1.6,11.6L131.1,80.9z M153.3,29.2L59,25.9c-3.5-0.1-6.4,2.6-6.6,6.1
			c0,0,0,0.1,0,0.1l-3.3,103.4v1.2L49,139v1.5c0,0.8-0.2,1.5-0.5,2.2v0.1c-1,2.3-3.3,3.8-5.9,3.8h-0.7l-6.6-0.1H35l-7.4-0.1H24
			c-2.6,0-4.7,2-4.8,4.6v0.1l-0.2,4.9l-1.5,40.7c-0.1,3.9,3,7.2,6.9,7.3l90.5,3.1c4.7,0.2,8.6-3.5,8.8-8.2l2.2-63.9v-0.3v-0.9
			l0.1-2.4v-0.8v-0.7v-0.4l1.4-38.9c0.1-2.4,2.1-4.2,4.4-4.2c0,0,0,0,0,0l18.1,0.3h0.8c0.3,0,0.6,0,0.9-0.1c0.4,0,0.7-0.1,1.1-0.3
			c0.4-0.1,0.8-0.3,1.2-0.5c0.5-0.3,0.9-0.6,1.3-1.1c0.9-0.8,1.4-2,1.6-3.2c0.1-0.3,0.1-0.5,0.1-0.8v-1.4l1.6-44.3
			C158.8,31.9,156.4,29.3,153.3,29.2L153.3,29.2z M126.1,130.8l-4.9,34.9c-0.4,2.8-3,4.8-5.8,4.4c0,0,0,0,0,0L61,162.4
			c-2.4-0.3-4-2.5-3.7-4.9l3-21.1l0,0c0,0,0-0.1,0-0.1h0.5c2,0.2,3.9-0.9,4.7-2.8h0.5c1.8,0.2,3.6-0.8,4.4-2.5H71
			c1.7,0.2,3.3-0.7,4.1-2.2h0.4c2.1,0.3,4-1.2,4.2-3.3l9-65.2c0.3-2,2.2-3.5,4.3-3.2l56.7,8c1.9,0.3,3.2,2,2.9,3.8l-1.6,11.6
			l-19.9,0.3c-2.8,0.1-5,2.3-5,5.1L126.1,130.8z M152.8,36.5L66.2,32c-3.2-0.2-6,2.3-6.2,5.5l-4.7,95.1v1.4l-0.1,1.9l-0.1,1.4
			c0,0.7-0.2,1.4-0.5,2c0,0,0,0.1,0,0.1c-1,2.1-3.1,3.4-5.5,3.4h-0.7l-6.1-0.2h-0.2l-6.8-0.3h-0.1l-3.2-0.1
			c-2.4-0.1-4.4,1.8-4.5,4.1l0,0l-0.3,4.6l-0.3,4.8l-1.7,32.6c-0.2,3.6,2.6,6.7,6.2,6.9l83.2,4.4c4.3,0.2,7.9-3.1,8.2-7.4l3.1-58
			v-0.4l0.1-2.4l0.1-1.3v-0.4v-0.5v-0.3v-0.2l1.9-36.2c0.1-2.2,1.9-3.9,4.1-3.8l17.3,0.6h0.1c0.3,0,0.5,0,0.8,0c0.3,0,0.7-0.1,1-0.3
			c0.4-0.1,0.8-0.3,1.2-0.5c0.5-0.2,0.9-0.5,1.2-0.9c0.8-0.8,1.3-1.8,1.5-2.9c0.1-0.2,0.1-0.5,0.1-0.7l0.1-1.3l0.1-2.7l2-38.1
			C157.8,39.1,155.7,36.7,152.8,36.5z M60.8,136.2c2,0.2,3.9-0.9,4.7-2.8h0.5c1.8,0.2,3.6-0.8,4.4-2.5H71c1.7,0.2,3.3-0.7,4.1-2.2
			h0.4c2.1,0.3,4-1.2,4.2-3.3l9-65.2c0.3-2,2.2-3.5,4.3-3.2l56.7,8c1.9,0.3,3.2,2,2.9,3.8l-1.6,11.6l-19.9,0.3c-2.8,0.1-5,2.3-5,5.1
			v44.8l-4.9,34.9c-0.4,2.8-3,4.8-5.8,4.4c0,0,0,0,0,0L61,162.4c-2.4-0.3-4-2.5-3.7-4.9l3-21.1l0,0c0,0,0-0.1,0-0.1H60.8z
			 M152.3,43.2l-79.7-5.5c-3-0.2-5.5,2-5.7,5c0,0,0,0,0,0L61.1,130v0.7l-0.2,2.3l-0.1,1.2c0,0.6-0.2,1.3-0.5,1.9h0.5
			c2,0.2,3.9-0.9,4.7-2.8h0.5c1.8,0.2,3.5-0.8,4.4-2.4H71c1.7,0.2,3.3-0.7,4.1-2.2h0.4c2.1,0.3,4-1.2,4.2-3.3l9-65.2
			c0.3-2,2.2-3.5,4.3-3.2l56.7,8c1.9,0.3,3.2,2,2.9,3.8l-1.6,11.6l-19.9,0.3c-2.8,0.1-5,2.3-5,5.1v44.8l-4.9,34.9
			c-0.4,2.8-3,4.8-5.8,4.4c0,0,0,0,0,0L61,162.4c-2.4-0.3-4-2.5-3.7-4.9l3-21.1c-0.9,1.9-2.9,3.1-5,3h-0.6L49,139h-0.2l-6.3-0.3
			h-0.1l-2.9-0.1c-2.2-0.1-4,1.5-4.2,3.7l0,0l-0.1,1.4l-0.2,2.9l-0.3,4.4v0.2c0,0,0,0,0,0.1l-2.1,29.7c-0.2,3.3,2.3,6.2,5.6,6.4
			l76.4,5.3c4,0.3,7.4-2.7,7.7-6.6c0,0,0,0,0-0.1l3.7-52.8v-0.6l0.1-1.1l0.1-1.3v-0.4v-0.5v-0.3v-0.2v-0.3v-0.1v-0.4l2.3-33.5
			c0.2-2,2-3.6,4-3.4c0,0,0,0,0.1,0l15.9,0.9c0.3,0,0.6,0,0.9,0c0.3,0,0.6-0.1,0.9-0.2c0.4-0.1,0.7-0.2,1-0.4
			c0.4-0.2,0.8-0.5,1.2-0.9c0.7-0.7,1.2-1.6,1.4-2.6c0.1-0.2,0.1-0.5,0.1-0.7l0.1-1.2l0.2-2.4l0.2-3l2.2-32
			C156.9,45.8,155,43.5,152.3,43.2C152.3,43.3,152.3,43.3,152.3,43.2L152.3,43.2z M151.7,49.4l-73.2-6.3c-2.7-0.2-5.1,1.8-5.4,4.5
			l-6.8,80.3l-0.3,2.8l-0.1,1.2c0,0.6-0.2,1.2-0.5,1.7h0.5c1.8,0.2,3.6-0.8,4.4-2.5H71c1.7,0.2,3.3-0.7,4.1-2.2h0.4
			c2.1,0.3,4-1.2,4.2-3.3l9-65.2c0.3-2,2.2-3.5,4.3-3.2l56.7,8c1.9,0.3,3.2,2,2.9,3.8l-1.6,11.6l-19.9,0.3c-2.8,0.1-5,2.3-5,5.1
			v44.8l-4.9,34.9c-0.4,2.8-3,4.8-5.8,4.4c0,0,0,0,0,0L61,162.4c-2.4-0.3-4-2.5-3.7-4.9l3-21.1l0,0c0,0,0-0.1,0-0.1l0,0l-5.1-0.3H55
			l-5.8-0.4h-0.1l-2.7-0.2c-2-0.1-3.7,1.4-3.9,3.4l0,0l-0.1,1.2l-0.2,2.7l-0.3,4.1c0,0.1,0,0.1,0,0.2l-2.4,27.3c-0.3,3,1.9,5.7,5,6
			c0,0,0,0,0,0l70.2,6.1c3.6,0.3,6.8-2.3,7.2-5.9c0,0,0,0,0-0.1l4.2-47.8v-0.6l0.1-1l0.1-0.9v-0.4v-0.8v-0.2v-0.3v-0.1v-0.4
			l2.8-31.9c0.2-1.9,1.8-3.3,3.7-3.1c0,0,0.1,0,0.1,0l14.6,1c0.6,0,1.1,0,1.6-0.2c0.4-0.1,0.7-0.2,1-0.4c0.4-0.2,0.7-0.4,1-0.7
			c0.7-0.7,1.2-1.5,1.4-2.5c0.1-0.2,0.1-0.4,0.1-0.6l0.1-1.1l0.2-2.2l0.2-2.7l0.3-3.1l2.3-26.3C155.9,51.7,154.1,49.7,151.7,49.4
			L151.7,49.4z M151.1,55.1L83.9,48c-2.5-0.2-4.7,1.6-5,4.1l-7.8,76.3l-0.1,1.1c0,0.5-0.2,1.1-0.5,1.6H71c1.7,0.2,3.3-0.7,4.1-2.2
			h0.4c2.1,0.3,4-1.2,4.2-3.3l9-65.2c0.3-2,2.2-3.5,4.3-3.2l56.7,8c1.9,0.3,3.2,2,2.9,3.8l-1.6,11.6l-19.9,0.3c-2.8,0.1-5,2.3-5,5.1
			v44.8l-4.9,34.9c-0.4,2.8-3,4.8-5.8,4.4c0,0,0,0,0,0L61,162.4c-2.4-0.3-4-2.5-3.7-4.9l3-21.1l0,0c0,0,0-0.1,0-0.1h0.5
			c2,0.2,3.9-0.9,4.7-2.8l-4.7-0.4h-0.2l-5.3-0.4h-0.1l-2.4-0.2c-1.8-0.2-3.5,1.2-3.6,3c0,0,0,0,0,0l0,0l-0.1,1.2l-0.2,2.3l-0.4,3.7
			v0.1L45.8,168c-0.3,2.8,1.7,5.3,4.5,5.6c0,0,0,0,0,0l64.5,6.8c3.4,0.3,6.4-2.1,6.7-5.5l4.5-43v-0.6l0.1-0.5v-0.3l0.1-0.6v-0.4
			l0.3-2.5V127l3.1-29.4c0.2-1.7,1.7-2.9,3.4-2.7c0,0,0,0,0,0l13.5,1.2c0.8,0.1,1.7-0.1,2.4-0.5c0.3-0.2,0.7-0.4,0.9-0.7
			c0.6-0.6,1.1-1.3,1.3-2.2c0.1-0.2,0.1-0.4,0.1-0.6l0.1-1l0.2-2.1l0.3-2.5l0.3-2.8l0.3-3.2l2.2-20.9
			C154.9,57.4,153.3,55.4,151.1,55.1C151.1,55.1,151.1,55.1,151.1,55.1L151.1,55.1z M150.4,60.3l-61.7-7.6c-2.3-0.3-4.4,1.3-4.7,3.6
			c0,0,0,0.1,0,0.1l-8.5,71c-0.1,0.5-0.2,1-0.4,1.4h0.4c2.1,0.3,4-1.2,4.2-3.3l9-65.2c0.3-2.1,2.2-3.5,4.3-3.2l56.7,8
			c1.9,0.3,3.2,2,2.9,3.8l-1.6,11.6l-19.9,0.3c-2.8,0.1-5,2.3-5,5.1v44.8l-4.9,34.9c-0.4,2.8-3,4.8-5.8,4.4c0,0,0,0,0,0L61,162.4
			c-2.4-0.3-4-2.5-3.7-4.9l3-21.1l0,0c0,0,0-0.1,0-0.1h0.5c2,0.2,3.9-0.9,4.7-2.8h0.5c1.8,0.2,3.6-0.8,4.4-2.5l-4.3-0.4l-5-0.5l0,0
			l0,0l-2.3-0.2c-1.7-0.2-3.2,1-3.4,2.7v0.1l-0.2,1.4l-0.2,1.8l-0.4,3.4c0,0,0,0.1,0,0.1l-2.8,23.1c-0.3,2.6,1.5,4.9,4.1,5.2
			L115,175c3.1,0.4,5.8-1.8,6.2-4.9c0,0,0,0,0,0l4.8-38.8l0.1-0.6l0.1-0.8l0.1-0.7v-0.3v-0.2v-0.3v-0.1v-0.4l0.1-0.8V127l3.6-27.9
			c0.2-1.5,1.6-2.6,3.1-2.5l12.3,1.3c1.1,0.1,2.3-0.2,3.1-1c0.6-0.5,1-1.2,1.2-2c0.1-0.2,0.1-0.3,0.1-0.5l0.1-0.9l0.2-1.9l0.3-2.2
			l0.3-2.7l0.3-2.9l0.4-3.2l2-16.1C153.9,62.5,152.5,60.6,150.4,60.3C150.4,60.3,150.4,60.3,150.4,60.3L150.4,60.3z M131.1,80.8
			c-2.8,0.1-5,2.3-5,5.1v44.8l0.1-0.6l0.1-0.7l0.1-0.7v-0.3v-0.1v-0.4l0.1-0.8V127l3.7-26.5c0.2-1.4,1.5-2.4,2.9-2.2l11.4,1.4
			c1.8,0.2,3.5-0.9,4-2.7c0.1-0.2,0.1-0.3,0.1-0.5l0.1-0.9l0.2-1.7l0.3-2.1l0.3-2.4l0.4-2.7l0.4-2.9l0.4-3.2L131.1,80.8z
			 M71.1,128.3l-4.7-0.6l-2.1-0.3c-1.6-0.2-3,0.9-3.2,2.5l0,0l-0.1,0.7l-0.3,2.3l-0.4,3.1v0.1c0,0,0-0.1,0-0.1h0.5
			c2,0.2,3.9-0.9,4.7-2.8H66c1.8,0.2,3.6-0.8,4.5-2.4H71c1.7,0.2,3.3-0.7,4.1-2.2L71.1,128.3z M326.3,179.2h-44.1
			c2.2,0.9,3.6,3.1,3.3,5.5l-1.7,12.3c-0.4,2.8-3,4.7-5.7,4.3c0,0,0,0,0,0l-54.8-7.7c-2.8-0.4-4.8-2.9-4.4-5.7c0,0,0,0,0-0.1
			l1.2-8.6h-1.5c-0.2,0-0.4,0-0.6,0c-0.4,0-0.8,0-1.2,0.1c-0.4,0.1-0.8,0.2-1.2,0.3l0,0c-0.4,0.1-0.8,0.3-1.1,0.4
			c-0.4,0.1-0.7,0.3-1,0.5c-0.3,0.2-0.7,0.4-1,0.7c-2.4,1.9-3.8,4.8-3.8,7.9v24c0,5.5,4.5,10,10,10h107.7c5.5,0,10-4.5,10-10v-24
			C336.3,183.7,331.9,179.3,326.3,179.2L326.3,179.2z M318.9,179.5l-19.8-0.3l-6-0.1h-2.1h-2.1h-2h-2.3h-1.9h-1.5l-60.8-1.1h-1
			c-0.4,0-0.8,0-1.1,0.1c-0.4,0-0.8,0.1-1.1,0.2l-1,0.4c-0.3,0.2-0.7,0.3-1,0.5c-0.3,0.2-0.6,0.4-0.9,0.6c-0.6,0.4-1.2,1-1.7,1.6
			c-1.3,1.6-2,3.5-2,5.6l-0.4,21.9c-0.1,5.1,3.9,9.2,9,9.4l99.1,1.7c5.1,0.1,9.2-3.9,9.3-9l0.4-22.1
			C328,183.9,324,179.7,318.9,179.5C319,179.6,318.9,179.6,318.9,179.5L318.9,179.5z M282.2,179.2c2.2,0.9,3.6,3.1,3.3,5.5
			l-1.7,12.3c-0.4,2.8-3,4.7-5.7,4.3c0,0,0,0,0,0l-54.8-7.7c-2.8-0.4-4.8-2.9-4.4-5.7c0,0,0,0,0-0.1l1.2-8.6L282.2,179.2z
			 M312.1,179.8l-16-0.6l-3-0.1l-4.3-0.2l-2.1-0.1h-1.9l-2.3-0.1l-1.9-0.1h-1.5l-58.2-2h-0.5c-0.4,0-0.7,0-1.1,0.1
			c-0.3,0-0.7,0.1-1,0.2c-0.3,0.1-0.6,0.2-0.9,0.3l0,0c-0.3,0.1-0.6,0.3-0.9,0.5c-0.3,0.1-0.6,0.3-0.8,0.6c-0.6,0.4-1.1,0.9-1.6,1.5
			c-0.3,0.3-0.5,0.6-0.6,0.9c-0.8,1.2-1.2,2.6-1.3,4.1l-0.7,20.3c-0.2,4.7,3.5,8.6,8.1,8.8l91.1,3.1c4.7,0.2,8.6-3.5,8.8-8.1
			c0,0,0,0,0,0l0.7-20.3C320.4,183.9,316.8,180,312.1,179.8C312.1,179.8,312.1,179.8,312.1,179.8L312.1,179.8z M282.2,179.2
			c2.2,0.9,3.6,3.1,3.3,5.5l-1.7,12.3c-0.4,2.8-3,4.7-5.7,4.3c0,0,0,0,0,0l-54.8-7.7c-2.8-0.4-4.8-2.9-4.4-5.7c0,0,0,0,0-0.1
			l1.2-8.6L282.2,179.2z M305.8,179.8l-12.2-0.6l-2.7-0.1l-2.1-0.1l-2.1-0.1l-2.2-0.1l-1.8-0.1l-2.5-0.1l-1.8-0.1h-1.3l-55.1-2.9
			c-0.5,0-0.9,0-1.4,0.1c-0.3,0-0.7,0.1-1,0.2l-0.9,0.3c-0.3,0.1-0.6,0.3-0.9,0.5c-0.3,0.1-0.6,0.3-0.8,0.5c-0.6,0.4-1,0.8-1.4,1.4
			c-0.3,0.2-0.5,0.5-0.6,0.8c-0.2,0.3-0.4,0.6-0.6,1c-0.4,0.9-0.6,1.8-0.6,2.7l-1,18.7c-0.2,4.3,3.1,7.9,7.4,8.2l83.8,4.4
			c4.3,0.2,7.9-3.1,8.2-7.4l1-18.7C313.4,183.8,310.1,180.1,305.8,179.8C305.8,179.9,305.8,179.9,305.8,179.8L305.8,179.8z
			 M282.2,179.2c2.2,0.9,3.6,3.1,3.3,5.5l-1.7,12.3c-0.4,2.8-3,4.7-5.7,4.3c0,0,0,0,0,0l-54.8-7.7c-2.8-0.4-4.8-2.9-4.4-5.7
			c0,0,0,0,0-0.1l1.2-8.6L282.2,179.2z M300,179.8l-8.6-0.6l-2.5-0.2l-2.1-0.2l-2.2-0.1l-3.6-0.3l-2.7-0.2l-1.7-0.1l-1.2-0.1
			l-52.4-3.6c-0.7-0.1-1.5,0-2.2,0.2c-0.6,0.1-1.2,0.4-1.7,0.6c-0.3,0.1-0.5,0.2-0.7,0.4c-0.5,0.3-1,0.7-1.3,1.2
			c-0.2,0.3-0.4,0.5-0.6,0.8c-0.2,0.3-0.3,0.6-0.5,0.9c-0.2,0.3-0.3,0.7-0.4,1.1l0,0c-0.1,0.5-0.2,0.9-0.2,1.4l-1.2,17.1
			c-0.3,3.9,2.7,7.4,6.7,7.6l77,5.4c3.9,0.3,7.4-2.7,7.6-6.7l1.2-17.1C307,183.5,304,180.1,300,179.8C300,179.9,300,179.9,300,179.8
			L300,179.8z M283.8,197c-0.4,2.8-3,4.7-5.7,4.3c0,0,0,0,0,0l-54.8-7.7c-2.8-0.4-4.8-2.9-4.4-5.7c0,0,0,0,0-0.1l1.2-8.6h62.2
			c2.2,0.9,3.6,3.1,3.3,5.5L283.8,197z M294.7,179.8l-5.4-0.5l-2.4-0.2l-2.1-0.2l-2.1-0.2l-1.8-0.2l-5.4-0.5l-1.1-0.1l-0.9-0.1h-0.2
			l-0.8-0.1l-48.6-4.2c-0.9-0.1-1.8,0-2.7,0.3c-0.3,0.1-0.5,0.2-0.8,0.3c-0.8,0.3-1.5,0.9-2,1.6c-0.2,0.2-0.4,0.4-0.5,0.7
			c-0.2,0.2-0.4,0.5-0.5,0.8l0,0c-0.1,0.3-0.3,0.6-0.3,0.9c-0.1,0.4-0.2,0.8-0.3,1.2v0.1l-1.4,15.7c-0.3,3.6,2.4,6.8,6,7.1l70.8,6.2
			c3.6,0.3,6.8-2.4,7.1-6l1.4-15.7C301,183.3,298.3,180.1,294.7,179.8C294.7,179.7,294.7,179.7,294.7,179.8L294.7,179.8z M283.8,197
			c-0.4,2.8-3,4.7-5.7,4.3c0,0,0,0,0,0l-54.8-7.7c-2.8-0.4-4.8-2.9-4.4-5.7c0,0,0,0,0-0.1l1.2-8.6h62.2c2.2,0.9,3.6,3.1,3.3,5.5
			L283.8,197z M289.8,179.6l-2.9-0.3l-2.4-0.3l-2.1-0.2l-2.2-0.2l-2-0.2l-2.7-0.3l-1.1-0.1l-0.9-0.1h-0.2l-0.8-0.1l-47.7-5
			c-1.1-0.1-2.3,0.1-3.3,0.6c-0.2,0-0.4,0.1-0.6,0.3l-0.1,0.1c-0.4,0.2-0.7,0.5-1,0.8c-0.3,0.3-0.5,0.5-0.7,0.9l-0.4,0.6
			c-0.2,0.3-0.3,0.7-0.4,1c-0.1,0.3-0.2,0.7-0.2,1v0.1l-0.1,1.2l-1.4,13.3c-0.3,3.3,2.1,6.3,5.4,6.7l65,6.7c3.3,0.3,6.3-2.1,6.7-5.4
			l1.5-14.4C295.5,182.9,293.2,179.9,289.8,179.6C289.8,179.6,289.8,179.6,289.8,179.6L289.8,179.6z M283.8,197
			c-0.4,2.8-3,4.7-5.7,4.3c0,0,0,0,0,0l-54.8-7.7c-2.8-0.4-4.8-2.9-4.4-5.7c0,0,0,0,0-0.1l1.2-8.6h62.2c2.2,0.9,3.6,3.1,3.3,5.5
			L283.8,197z M285.3,179.3H285l-2.3-0.3l-2.1-0.3l-2.1-0.3l-1.9-0.2l-2.1-0.3l-0.9-0.1h-0.2l-0.8-0.1l-0.8-0.1l-46-5.7
			c-1.2-0.2-2.5,0.1-3.6,0.8c-0.4,0.2-0.8,0.5-1.1,0.9l-0.1,0.1c-0.2,0.2-0.4,0.3-0.5,0.6c-0.2,0.2-0.3,0.5-0.5,0.7
			c-0.1,0.3-0.2,0.5-0.3,0.8c-0.1,0.3-0.2,0.7-0.2,1l0,0l-0.1,1.1l-0.2,1.4l-1.3,10.8c-0.4,3.1,1.8,5.8,4.9,6.2l59.7,7.3
			c3.1,0.4,5.8-1.8,6.2-4.9l1.6-13.3C290.6,182.5,288.4,179.7,285.3,179.3C285.3,179.3,285.3,179.3,285.3,179.3L285.3,179.3z
			 M283.8,197c-0.4,2.8-3,4.7-5.7,4.3c0,0,0,0,0,0l-54.8-7.7c-2.8-0.4-4.8-2.9-4.4-5.7c0,0,0,0,0-0.1l1.2-8.6h62.2
			c2.2,0.9,3.6,3.1,3.3,5.5L283.8,197z M281.2,179L281.2,179l-2.1-0.3l-2-0.3l-1.8-0.3l-1.9-0.3h-0.2l-0.8-0.1l-0.8-0.1l-45.3-6.4
			c-1.6-0.2-3.2,0.3-4.3,1.5c-0.2,0.2-0.4,0.4-0.5,0.6c-0.1,0.2-0.3,0.4-0.3,0.6c-0.2,0.3-0.3,0.5-0.4,0.8c-0.1,0.3-0.2,0.6-0.2,0.9
			v0.1l-0.1,1l-0.2,1.2l-0.2,1.4h62.2C281.9,179.2,281.5,179.1,281.2,179z M352.9,128.5L279,4.3c-2.1-3.6-6.8-4.7-10.3-2.6
			c-1.1,0.7-2,1.6-2.7,2.7l-72.4,128.2c-3,5.3-1.1,12.1,4.2,15.2c1.7,0.9,3.6,1.4,5.5,1.4h137.8c7.6,0,13.7-6.1,13.7-13.7
			C354.8,133.1,354.2,130.6,352.9,128.5L352.9,128.5z M290.2,122.9l-70-9.8c-3.1-0.5-5.3-3.4-4.8-6.5c0.1-0.9,0.5-1.8,1.1-2.6l46-60
			c1.3-1.7,3.7-2,5.4-0.7c0.5,0.4,1,1,1.2,1.6l28.7,68.4c1.5,3.6-0.2,7.7-3.8,9.2C292.8,122.9,291.5,123.1,290.2,122.9L290.2,122.9z
			 M343.7,126.5L277.7,11c-1.8-3.3-6-4.5-9.4-2.7c-1.1,0.6-2,1.5-2.6,2.6l-68.6,116.8c-2.9,4.8-1.3,11.1,3.6,14
			c1.5,0.9,3.3,1.4,5,1.4l126.8,2.2c7,0.1,12.7-5.4,12.8-12.4C345.4,130.7,344.8,128.4,343.7,126.5L343.7,126.5z M290.2,122.9
			l-70-9.8c-3.1-0.5-5.3-3.4-4.8-6.5c0.1-0.9,0.5-1.8,1.1-2.6l46-60c1.3-1.7,3.7-2,5.4-0.7c0.5,0.4,1,1,1.2,1.6l28.7,68.4
			c1.5,3.6-0.2,7.7-3.8,9.2C292.8,122.9,291.5,123.1,290.2,122.9L290.2,122.9z M335.2,124.5L276.5,17.2c-1.7-3.1-5.6-4.2-8.7-2.5
			c-1,0.5-1.8,1.3-2.3,2.2l-65,106.4c-2.7,4.4-1.3,10.2,3.1,12.9c1.4,0.8,3,1.3,4.6,1.4l116.6,4.1c6.4,0.2,11.8-4.8,12-11.2
			C336.8,128.3,336.3,126.3,335.2,124.5L335.2,124.5z M290.2,122.9l-70-9.8c-3.1-0.5-5.3-3.4-4.8-6.5c0.1-0.9,0.5-1.8,1.1-2.6l46-60
			c1.3-1.7,3.7-2,5.4-0.7c0.5,0.4,1,1,1.2,1.6l28.7,68.4c1.5,3.6-0.2,7.7-3.8,9.2C292.8,122.9,291.5,123.1,290.2,122.9L290.2,122.9z
			 M327.6,122.5l-52.4-99.7c-1.5-2.9-5-4-7.9-2.5c-0.9,0.5-1.7,1.2-2.2,2l-61.5,96.8c-2.6,4.1-1.3,9.4,2.7,12
			c1.3,0.8,2.7,1.2,4.2,1.3l107.1,5.6c5.9,0.3,10.9-4.2,11.2-10.2C328.9,126.1,328.5,124.2,327.6,122.5L327.6,122.5z M290.2,122.9
			l-70-9.8c-3.1-0.5-5.3-3.4-4.8-6.5c0.1-0.9,0.5-1.8,1.1-2.6l46-60c1.3-1.7,3.7-2,5.4-0.7c0.5,0.4,1,1,1.2,1.6l28.7,68.4
			c1.5,3.6-0.2,7.7-3.8,9.2C292.8,122.9,291.5,123.1,290.2,122.9L290.2,122.9z M320.5,120.6L273.9,28c-1.3-2.7-4.6-3.7-7.3-2.4
			c-0.8,0.4-1.5,1.1-2.1,1.8l-58.1,88.1c-2.4,3.7-1.3,8.7,2.4,11.1c1.1,0.7,2.4,1.1,3.7,1.2l98.4,6.9c5.4,0.4,10.1-3.6,10.5-9
			C321.6,123.9,321.3,122.1,320.5,120.6L320.5,120.6z M290.2,122.9l-70-9.8c-3.1-0.5-5.3-3.4-4.8-6.5c0.1-0.9,0.5-1.8,1.1-2.6l46-60
			c1.3-1.7,3.7-2,5.4-0.7c0.5,0.4,1,1,1.2,1.6l28.7,68.4c1.5,3.6-0.2,7.7-3.8,9.2C292.8,122.9,291.5,123.1,290.2,122.9L290.2,122.9z
			 M314,118.6l-41.4-85.8c-1.2-2.5-4.1-3.5-6.6-2.3c-0.8,0.4-1.5,1-1.9,1.7l-54.9,80.1c-2.3,3.3-1.4,7.9,1.9,10.2
			c1,0.7,2.2,1.1,3.5,1.3l90.5,7.9c5,0.4,9.4-3.3,9.8-8.3C315,121.7,314.7,120.1,314,118.6z M290.2,122.9l-70-9.8
			c-3.1-0.5-5.3-3.4-4.8-6.5c0.1-0.9,0.5-1.8,1.1-2.6l46-60c1.3-1.7,3.7-2,5.4-0.7c0.5,0.4,1,1,1.2,1.6l28.7,68.4
			c1.5,3.6-0.2,7.7-3.7,9.2C292.9,122.9,291.5,123.1,290.2,122.9L290.2,122.9z M308.1,116.8l-36.6-79.6c-1.1-2.3-3.8-3.3-6.1-2.2
			c-0.7,0.3-1.3,0.8-1.8,1.5l-51.8,72.8c-2.2,3-1.4,7.3,1.6,9.4c0.9,0.7,2,1.1,3.2,1.2l83.1,8.7c4.6,0.5,8.7-2.8,9.1-7.4
			C309,119.6,308.7,118.1,308.1,116.8L308.1,116.8z M290.2,122.9l-70-9.8c-3.1-0.5-5.3-3.4-4.8-6.5c0.1-0.9,0.5-1.8,1.1-2.6l46-60
			c1.3-1.7,3.7-2,5.4-0.7c0.5,0.4,1,1,1.2,1.6l28.7,68.4c1.5,3.6-0.2,7.7-3.7,9.2C292.9,122.9,291.5,123.1,290.2,122.9L290.2,122.9z
			 M302.6,114.9l-32.4-73.8c-0.9-2.1-3.4-3.1-5.5-2.2c-0.7,0.3-1.3,0.8-1.7,1.3l-48.8,66.1c-2,2.8-1.4,6.6,1.3,8.7
			c0.9,0.6,1.9,1,2.9,1.1l76.3,9.4c4.2,0.5,8-2.5,8.5-6.7C303.4,117.6,303.2,116.2,302.6,114.9L302.6,114.9z M290.2,122.9l-70-9.8
			c-3.1-0.5-5.3-3.4-4.8-6.5c0.1-0.9,0.5-1.8,1.1-2.6l46-60c1.3-1.7,3.7-2,5.4-0.7c0.5,0.4,1,1,1.2,1.6l28.7,68.4
			c1.5,3.6-0.2,7.7-3.7,9.2C292.9,122.9,291.5,123.1,290.2,122.9L290.2,122.9z"/>
	</g>
</g>
</svg>
