<svg id="Layer_1" data-name="Layer 1" xmlns="http://www.w3.org/2000/svg" viewBox="0 0 566.93 566.93"><defs><style>.cls-1{fill:none;stroke:#fff;stroke-miterlimit:10;stroke-width:2px;}</style></defs><title>saW</title><path class="cls-1" d="M259.61,183.56H148.13a7.55,7.55,0,0,0-7.53,7.57L141,313.31v6a7.7,7.7,0,0,1-.47,2.63s0,.08,0,.17,0,0,0,.08a7.46,7.46,0,0,1-6.75,4.56h-.86l-8,.17-8.82.17-4.21.09a5.59,5.59,0,0,0-5.46,5.59v54.09a8.4,8.4,0,0,0,8.38,8.42h107a10.07,10.07,0,0,0,10.06-10.06V301.79l-4.9,34.87a5.14,5.14,0,0,1-5.84,4.38l-54.35-7.65a4.32,4.32,0,0,1-3.7-4.86l3-21.15a0,0,0,0,1,0,0,.14.14,0,0,1,.05-.13l.51,0a4.77,4.77,0,0,0,4.73-2.75l.52,0a4.5,4.5,0,0,0,4.43-2.49l.47,0a4,4,0,0,0,4.08-2.19l.43,0a3.77,3.77,0,0,0,4.22-3.26l9-65.18a3.87,3.87,0,0,1,4.35-3.31l56.66,7.95a3.43,3.43,0,0,1,2.88,3.87l-1.63,11.56h.69l.81,0h1a4.21,4.21,0,0,0,1.08-.13,4,4,0,0,0,1.24-.34,5.1,5.1,0,0,0,1.38-.69,5,5,0,0,0,1.5-1.33,7.16,7.16,0,0,0,1.85-4.82v-54A6.62,6.62,0,0,0,259.61,183.56Zm-.21,8.68-102.54-1.8a7,7,0,0,0-7.06,6.83L148.17,309.7l0,1.21v2.66l0,1.64a5.88,5.88,0,0,1-.52,2.45.23.23,0,0,1,0,.17,6.87,6.87,0,0,1-6.28,4.13h-8.17L125,322h-3.87a5.12,5.12,0,0,0-5.12,5.07v0l-.9,49.71a7.78,7.78,0,0,0,7.61,7.86l98.41,1.72a9.27,9.27,0,0,0,9.42-9.11l1.24-71.24v-.82l.05-.43v-2.36l0-.73v-.52l.73-41.79a4.71,4.71,0,0,1,4.69-4.64h20.59a7.42,7.42,0,0,0,1-.09,9.34,9.34,0,0,0,1.16-.3,6.09,6.09,0,0,0,1.33-.65,5.52,5.52,0,0,0,1.34-1.16,6.15,6.15,0,0,0,1.67-3.52,3.11,3.11,0,0,0,.13-.9l.86-49.66A6.1,6.1,0,0,0,259.4,192.24Zm-22.58,59.68a5.11,5.11,0,0,0-5,5.11v44.76l-4.9,34.87a5.14,5.14,0,0,1-5.84,4.38l-54.35-7.65a4.32,4.32,0,0,1-3.7-4.86l3-21.15a0,0,0,0,1,0,0,.14.14,0,0,1,.05-.13l.51,0a4.77,4.77,0,0,0,4.73-2.75l.52,0a4.5,4.5,0,0,0,4.43-2.49l.47,0a4,4,0,0,0,4.08-2.19l.43,0a3.77,3.77,0,0,0,4.22-3.26l9-65.18a3.87,3.87,0,0,1,4.35-3.31l56.66,7.95a3.43,3.43,0,0,1,2.88,3.87l-1.63,11.56Zm22.23-51.68-94.28-3.31a6.32,6.32,0,0,0-6.58,6.15l-3.31,103.4,0,1.24-.09,2.33,0,1.5a6.79,6.79,0,0,1-.52,2.24v.08a6.37,6.37,0,0,1-5.89,3.79h-.73l-6.58-.13h-.21l-7.44-.13-3.57,0a4.67,4.67,0,0,0-4.77,4.55V322l-.17,4.94-1.47,40.72a7.18,7.18,0,0,0,6.88,7.39l90.5,3.14a8.54,8.54,0,0,0,8.82-8.21l2.23-63.93v-.3l.05-.95.08-2.41v-.77l.05-.73v-.43l1.37-38.91a4.31,4.31,0,0,1,4.39-4.17l18.14.3h.77a3.37,3.37,0,0,0,.95-.09,4.73,4.73,0,0,0,1.08-.25,5.44,5.44,0,0,0,1.2-.52,4.67,4.67,0,0,0,1.29-1.07,5.22,5.22,0,0,0,1.55-3.19,2.59,2.59,0,0,0,.13-.81l0-1.38L264.47,206A5.62,5.62,0,0,0,259.05,200.24ZM231.79,301.79l-4.9,34.87a5.14,5.14,0,0,1-5.84,4.38l-54.35-7.65a4.32,4.32,0,0,1-3.7-4.86l3-21.15a0,0,0,0,1,0,0,.14.14,0,0,1,.05-.13l.51,0a4.77,4.77,0,0,0,4.73-2.75l.52,0a4.5,4.5,0,0,0,4.43-2.49l.47,0a4,4,0,0,0,4.08-2.19l.43,0a3.77,3.77,0,0,0,4.22-3.26l9-65.18a3.87,3.87,0,0,1,4.35-3.31l56.66,7.95a3.43,3.43,0,0,1,2.88,3.87l-1.63,11.56-19.87.35a5.11,5.11,0,0,0-5,5.11Zm26.79-94.24L171.9,203a5.86,5.86,0,0,0-6.14,5.59L161,303.64,161,305l-.08,1.84-.09,1.42a5.92,5.92,0,0,1-.47,2c0,.05,0,.09,0,.13a5.85,5.85,0,0,1-5.46,3.36h-.65l-6.06-.22h-.22l-6.83-.26H141l-3.18-.08a4.34,4.34,0,0,0-4.47,4.13v0l-.26,4.56-.26,4.81L131.1,359.4a6.58,6.58,0,0,0,6.24,6.88l83.19,4.39a7.84,7.84,0,0,0,8.21-7.44l3-58,.05-.43.08-2.41.09-1.33,0-.39v-.51l0-.26v-.17L234,263.57a3.93,3.93,0,0,1,4.08-3.78l17.33.6h.08a5.63,5.63,0,0,0,.82,0,4,4,0,0,0,1-.26,3.1,3.1,0,0,0,1.16-.52,3.29,3.29,0,0,0,1.2-.94,5,5,0,0,0,1.51-2.88,2.14,2.14,0,0,0,.13-.74l.08-1.29.13-2.66,2-38.09A5.18,5.18,0,0,0,258.58,207.55Zm-92,99.7a4.77,4.77,0,0,0,4.73-2.75l.52,0a4.5,4.5,0,0,0,4.43-2.49l.47,0a4,4,0,0,0,4.08-2.19l.43,0a3.77,3.77,0,0,0,4.22-3.26l9-65.18a3.87,3.87,0,0,1,4.35-3.31l56.66,7.95a3.43,3.43,0,0,1,2.88,3.87l-1.63,11.56-19.87.35a5.11,5.11,0,0,0-5,5.11v44.76l-4.9,34.87a5.14,5.14,0,0,1-5.84,4.38l-54.35-7.65a4.32,4.32,0,0,1-3.7-4.86l3-21.15a0,0,0,0,1,0,0,.14.14,0,0,1,.05-.13Zm91.49-92.95-79.66-5.59a5.36,5.36,0,0,0-5.72,5l-5.85,87.32,0,.73-.17,2.32-.09,1.25a5.48,5.48,0,0,1-.47,1.85l.51,0a4.77,4.77,0,0,0,4.73-2.75l.52,0a4.5,4.5,0,0,0,4.43-2.49l.47,0a4,4,0,0,0,4.08-2.19l.43,0a3.77,3.77,0,0,0,4.22-3.26l9-65.18a3.87,3.87,0,0,1,4.35-3.31l56.66,7.95a3.43,3.43,0,0,1,2.88,3.87l-1.63,11.56-19.87.35a5.11,5.11,0,0,0-5,5.11v44.76l-4.9,34.87a5.14,5.14,0,0,1-5.84,4.38l-54.35-7.65a4.32,4.32,0,0,1-3.7-4.86l3-21.15a5.38,5.38,0,0,1-5,3l-.6-.05-5.59-.25h-.17l-6.32-.35h-.09l-2.92-.13a4,4,0,0,0-4.17,3.7v0l-.09,1.38-.21,2.84-.3,4.43v.17s0,0,0,.08l-2.06,29.71a6.08,6.08,0,0,0,5.59,6.45l76.44,5.33a7.2,7.2,0,0,0,7.7-6.7l3.69-52.84.05-.65.08-1.12.09-1.33,0-.39v-.51l0-.26v-.17l0-.26v-.13l0-.39,2.32-33.53a3.71,3.71,0,0,1,3.87-3.44l15.91.86a6.19,6.19,0,0,0,.86,0,3.7,3.7,0,0,0,.9-.22,2.56,2.56,0,0,0,1-.43,3.55,3.55,0,0,0,1.17-.9,4.63,4.63,0,0,0,1.41-2.62,1.68,1.68,0,0,0,.13-.65l.09-1.16.17-2.45.22-3,2.23-32A4.76,4.76,0,0,0,258.06,214.3Zm-.6,6.19-73.17-6.41a5,5,0,0,0-5.38,4.52l-6.75,80.27-.26,2.75-.08,1.16a4.15,4.15,0,0,1-.52,1.72l.52,0a4.5,4.5,0,0,0,4.43-2.49l.47,0a4,4,0,0,0,4.08-2.19l.43,0a3.77,3.77,0,0,0,4.22-3.26l9-65.18a3.87,3.87,0,0,1,4.35-3.31l56.66,7.95a3.43,3.43,0,0,1,2.88,3.87l-1.63,11.56-19.87.35a5.11,5.11,0,0,0-5,5.11v44.76l-4.9,34.87a5.14,5.14,0,0,1-5.84,4.38l-54.35-7.65a4.32,4.32,0,0,1-3.7-4.86l3-21.15a0,0,0,0,1,0,0,.14.14,0,0,1,.05-.13H166l-5.11-.35h-.17l-5.77-.38h-.08l-2.71-.17a3.67,3.67,0,0,0-3.91,3.35v0l-.13,1.21-.22,2.66-.34,4.09a.23.23,0,0,1,0,.17l-2.37,27.34a5.51,5.51,0,0,0,5,6l70.25,6.15a6.59,6.59,0,0,0,7.18-6l4.17-47.77.05-.6.08-1,.09-.86,0-.39,0-.77v-.17l0-.26v-.13l0-.39L235,267.1a3.39,3.39,0,0,1,3.61-3.06l14.61,1a4.12,4.12,0,0,0,1.64-.21,2.81,2.81,0,0,0,1-.39,3.52,3.52,0,0,0,1-.73,4.5,4.5,0,0,0,1.38-2.49,1.41,1.41,0,0,0,.12-.56l.09-1.12.22-2.23.21-2.67.3-3.14,2.28-26.31A4.36,4.36,0,0,0,257.46,220.49Zm-.64,5.68-67.2-7.1a4.61,4.61,0,0,0-5,4.09l-7.74,76.27-.13,1.07a3.89,3.89,0,0,1-.47,1.55l.47,0a4,4,0,0,0,4.08-2.19l.43,0a3.77,3.77,0,0,0,4.22-3.26l9-65.18a3.87,3.87,0,0,1,4.35-3.31l56.66,7.95a3.43,3.43,0,0,1,2.88,3.87l-1.63,11.56-19.87.35a5.11,5.11,0,0,0-5,5.11v44.76l-4.9,34.87a5.14,5.14,0,0,1-5.84,4.38l-54.35-7.65a4.32,4.32,0,0,1-3.7-4.86l3-21.15a0,0,0,0,1,0,0,.14.14,0,0,1,.05-.13l.51,0a4.77,4.77,0,0,0,4.73-2.75l-4.68-.39-.18,0-5.28-.43H161l-2.41-.21a3.34,3.34,0,0,0-3.66,3v.05l-.12,1.24-.26,2.33-.39,3.74v.08l-2.66,25.2a5.07,5.07,0,0,0,4.51,5.59l64.53,6.79a6.13,6.13,0,0,0,6.71-5.46L231.79,303l.05-.6.08-.52v-.3l.09-.56,0-.39.26-2.49v-.13l3.1-29.36a3.08,3.08,0,0,1,3.35-2.76l13.46,1.17a3.85,3.85,0,0,0,2.4-.52,3.55,3.55,0,0,0,.95-.65,4.24,4.24,0,0,0,1.29-2.19,2.12,2.12,0,0,0,.13-.6l.08-1,.22-2.06.3-2.5.3-2.83.3-3.23,2.24-20.94A4,4,0,0,0,256.82,226.17Zm-.69,5.2-61.7-7.57a4.17,4.17,0,0,0-4.68,3.66l-8.52,71a3.74,3.74,0,0,1-.43,1.42l.43,0a3.77,3.77,0,0,0,4.22-3.26l9-65.18a3.87,3.87,0,0,1,4.35-3.31l56.66,7.95a3.43,3.43,0,0,1,2.88,3.87l-1.63,11.56-19.87.35a5.11,5.11,0,0,0-5,5.11v44.76l-4.9,34.87a5.14,5.14,0,0,1-5.84,4.38l-54.35-7.65a4.32,4.32,0,0,1-3.7-4.86l3-21.15a0,0,0,0,1,0,0,.14.14,0,0,1,.05-.13l.51,0a4.77,4.77,0,0,0,4.73-2.75l.52,0a4.5,4.5,0,0,0,4.43-2.49l-4.35-.43-5-.52v0h0l-2.28-.21a3.07,3.07,0,0,0-3.39,2.7v.09L161,305l-.25,1.84-.39,3.44c0,.05,0,.09,0,.13l-2.84,23.09a4.73,4.73,0,0,0,4.08,5.25L220.79,346a5.57,5.57,0,0,0,6.23-4.9l4.77-38.82.09-.6.09-.82.08-.73,0-.26v-.17l0-.26v-.13l0-.39.13-.77v-.13l3.44-27.9a2.89,2.89,0,0,1,3.14-2.5l12.34,1.29a4.13,4.13,0,0,0,3.14-1,3.64,3.64,0,0,0,1.2-2,1.91,1.91,0,0,0,.13-.51l.13-.95.21-1.89.26-2.23.34-2.67.35-2.92.39-3.19,2-16.08A3.68,3.68,0,0,0,256.13,231.37Zm-19.31,20.55a5.11,5.11,0,0,0-5,5.11v44.76l.09-.6.09-.73.13-.73,0-.26v-.13l0-.39.13-.77v-.13l3.74-26.53a2.64,2.64,0,0,1,2.92-2.23l11.35,1.37a3.73,3.73,0,0,0,4.05-2.7,2.59,2.59,0,0,0,.12-.52l.13-.86.22-1.72.3-2.06.34-2.41.39-2.71.39-2.92.43-3.19Zm-60,47.51-4.69-.56-2.1-.26a2.85,2.85,0,0,0-3.19,2.45v0l-.08.69-.35,2.28-.43,3.14v.13a.14.14,0,0,1,.05-.13l.51,0a4.77,4.77,0,0,0,4.73-2.75l.52,0a4.5,4.5,0,0,0,4.43-2.49l.47,0a4,4,0,0,0,4.08-2.19ZM432.1,350.29H388a5.16,5.16,0,0,1,3.27,5.5L389.54,368a5.09,5.09,0,0,1-5.76,4.34L329,364.65a5.11,5.11,0,0,1-4.38-5.81l1.2-8.55h-1.5a2.59,2.59,0,0,0-.56,0,5.9,5.9,0,0,0-1.25.13,9.66,9.66,0,0,0-1.16.26,0,0,0,0,1,0,0,8.69,8.69,0,0,0-1.12.43,5,5,0,0,0-1,.52c-.34.21-.69.43-1,.68a10.07,10.07,0,0,0-3.83,7.87v24a10,10,0,0,0,10,10H432.1a10,10,0,0,0,10-10v-24A10,10,0,0,0,432.1,350.29Zm-7.44.34-19.82-.34-6-.09-2.14,0-2.11,0-2-.05-2.28,0-1.93,0h-1.55L326,348.91h-1a5,5,0,0,0-1.11.13,7.4,7.4,0,0,0-1.12.22l-1,.38c-.35.17-.69.35-1,.52a3.54,3.54,0,0,0-.91.64,7.42,7.42,0,0,0-1.67,1.59,9.12,9.12,0,0,0-2,5.55L315.8,380a9.25,9.25,0,0,0,9,9.37L424,391.09a9.18,9.18,0,0,0,9.33-9l.38-22.1A9.17,9.17,0,0,0,424.66,350.63ZM388,350.29a5.16,5.16,0,0,1,3.27,5.5L389.54,368a5.09,5.09,0,0,1-5.76,4.34L329,364.65a5.11,5.11,0,0,1-4.38-5.81l1.2-8.55Zm29.84.56-16-.56-3-.09-4.29-.17-2.11-.09-1.94,0-2.32-.09-1.85-.08-1.46,0-58.17-2h-.47a4.7,4.7,0,0,0-1.08.12,3,3,0,0,0-1,.22,3.33,3.33,0,0,0-.94.3h-.05a9.7,9.7,0,0,0-.9.47,2.55,2.55,0,0,0-.82.56,5.85,5.85,0,0,0-1.55,1.46,3,3,0,0,0-.64.91,7.91,7.91,0,0,0-1.29,4.08l-.69,20.29a8.47,8.47,0,0,0,8.13,8.78L416.54,388a8.47,8.47,0,0,0,8.77-8.17l.69-20.3A8.43,8.43,0,0,0,417.83,350.85ZM388,350.29a5.16,5.16,0,0,1,3.27,5.5L389.54,368a5.09,5.09,0,0,1-5.76,4.34L329,364.65a5.11,5.11,0,0,1-4.38-5.81l1.2-8.55Zm23.56.64-12.21-.64-2.66-.13-2.15-.13-2.11-.09-2.19-.13-1.81-.08L386,349.6l-1.76-.13-1.34,0-55.16-2.93a4.77,4.77,0,0,0-1.37.09,7,7,0,0,0-1,.17l-.86.26a3.6,3.6,0,0,0-.86.47,4.76,4.76,0,0,0-.82.48,5.46,5.46,0,0,0-1.42,1.37,2.86,2.86,0,0,0-.64.82,5.28,5.28,0,0,0-.56,1,7.24,7.24,0,0,0-.65,2.71l-1,18.66a7.82,7.82,0,0,0,7.4,8.17l83.79,4.38a7.77,7.77,0,0,0,8.17-7.35l1-18.66A7.75,7.75,0,0,0,411.55,350.93ZM388,350.29a5.16,5.16,0,0,1,3.27,5.5L389.54,368a5.09,5.09,0,0,1-5.76,4.34L329,364.65a5.11,5.11,0,0,1-4.38-5.81l1.2-8.55Zm17.76.6-8.65-.6-2.53-.17-2.15-.18-2.19-.13-3.57-.25-2.71-.17-1.68-.13-1.16-.09-52.37-3.65a6.1,6.1,0,0,0-2.19.21,2.77,2.77,0,0,0-.86.26,2.64,2.64,0,0,0-.81.39,1.75,1.75,0,0,0-.74.43,5.55,5.55,0,0,0-1.33,1.16,5.48,5.48,0,0,0-.6.81,5.91,5.91,0,0,0-.47.86,4.49,4.49,0,0,0-.39,1.08,0,0,0,0,1,0,0,13.74,13.74,0,0,0-.22,1.38l-1.2,17.15a7.19,7.19,0,0,0,6.66,7.65l77,5.38a7.2,7.2,0,0,0,7.66-6.67l1.2-17.11A7.18,7.18,0,0,0,405.75,350.89ZM389.54,368a5.09,5.09,0,0,1-5.76,4.34L329,364.65a5.11,5.11,0,0,1-4.38-5.81l1.2-8.55H388a5.16,5.16,0,0,1,3.27,5.5Zm10.88-17.24-5.42-.47-2.41-.22-2.11-.17-2.06-.17-1.76-.17-5.42-.48-1.12-.08-.9-.09-.17,0-.82-.09-48.58-4.21a6.32,6.32,0,0,0-2.71.34,3.35,3.35,0,0,0-.78.35,4.37,4.37,0,0,0-.55.26,5.81,5.81,0,0,0-1.47,1.29,2.75,2.75,0,0,0-.51.68,2.81,2.81,0,0,0-.47.82h-.05a5.32,5.32,0,0,0-.34.95,5.12,5.12,0,0,0-.26,1.2v.09l-1.37,15.77a6.61,6.61,0,0,0,6,7.14l70.77,6.19a6.63,6.63,0,0,0,7.14-6l1.37-15.73A6.59,6.59,0,0,0,400.42,350.76ZM389.54,368a5.09,5.09,0,0,1-5.76,4.34L329,364.65a5.11,5.11,0,0,1-4.38-5.81l1.2-8.55H388a5.16,5.16,0,0,1,3.27,5.5Zm6-17.41-2.88-.3-2.37-.26-2.15-.22L386,349.6l-2-.21-2.71-.31-1.12-.08-.9-.09-.17,0-.82-.09-47.68-5a5.7,5.7,0,0,0-3.27.6,1.51,1.51,0,0,0-.56.26s-.08.09-.08.09a3.52,3.52,0,0,0-1,.82,4.22,4.22,0,0,0-.73.86l-.39.64a7.28,7.28,0,0,0-.39,1,9.4,9.4,0,0,0-.21,1v.09l-.13,1.2-1.42,13.29a6.09,6.09,0,0,0,5.42,6.66l65,6.79a6.07,6.07,0,0,0,6.67-5.37l1.5-14.45A6,6,0,0,0,395.56,350.59Zm-6,17.41a5.09,5.09,0,0,1-5.76,4.34L329,364.65a5.11,5.11,0,0,1-4.38-5.81l1.2-8.55H388a5.16,5.16,0,0,1,3.27,5.5Zm1.5-17.67-.34,0-2.32-.3-2.07-.26-2.1-.26-1.94-.21-2.15-.26-.9-.09-.17,0-.82-.09-.82-.13-46-5.67a5.41,5.41,0,0,0-3.57.77,3.8,3.8,0,0,0-1.08.86s-.08.09-.08.09a1.82,1.82,0,0,0-.48.56,4.15,4.15,0,0,0-.47.73c-.13.26-.21.51-.34.77a10,10,0,0,0-.22,1v0l-.13,1.07-.17,1.38-1.33,10.83a5.64,5.64,0,0,0,4.86,6.24L388,374.67a5.61,5.61,0,0,0,6.24-4.86l1.63-13.29A5.57,5.57,0,0,0,391,350.33ZM389.54,368a5.09,5.09,0,0,1-5.76,4.34L329,364.65a5.11,5.11,0,0,1-4.38-5.81l1.2-8.55H388a5.16,5.16,0,0,1,3.27,5.5Zm-2.62-18h-.09l-2-.3-2-.26-1.76-.26-1.89-.26-.17,0-.82-.09-.82-.13-45.27-6.36a5.1,5.1,0,0,0-4.34,1.46,2.41,2.41,0,0,0-.52.6,2.88,2.88,0,0,0-.34.56,3.09,3.09,0,0,0-.39.82,6.73,6.73,0,0,0-.21.86v.09l-.13,1-.17,1.24-.22,1.38H388A4.24,4.24,0,0,0,386.92,350Zm71.71-50.48L384.77,175.3a7.55,7.55,0,0,0-13,.13L299.38,303.68a11.12,11.12,0,0,0,9.67,16.6h137.8A13.73,13.73,0,0,0,458.63,299.51ZM396,293.88l-70-9.8a5.74,5.74,0,0,1-3.74-9.12l46-60a3.85,3.85,0,0,1,6.62.86l28.68,68.41A7,7,0,0,1,396,293.88Zm53.44,3.61L383.48,182.05a6.89,6.89,0,0,0-12-.08L302.91,298.78a10.18,10.18,0,0,0,8.59,15.39l126.75,2.2A12.61,12.61,0,0,0,449.43,297.49ZM396,293.88l-70-9.8a5.74,5.74,0,0,1-3.74-9.12l46-60a3.85,3.85,0,0,1,6.62.86l28.68,68.41A7,7,0,0,1,396,293.88Zm45,1.59L382.19,188.2a6.38,6.38,0,0,0-11-.26l-65,106.37a9.39,9.39,0,0,0,7.7,14.27l116.55,4.09A11.62,11.62,0,0,0,441,295.47Zm-45-1.59-70-9.8a5.74,5.74,0,0,1-3.74-9.12l46-60a3.85,3.85,0,0,1,6.62.86l28.68,68.41A7,7,0,0,1,396,293.88Zm37.32-.39L380.9,193.88a5.84,5.84,0,0,0-10.11-.43l-61.52,96.78a8.67,8.67,0,0,0,6.88,13.28l107.14,5.63A10.71,10.71,0,0,0,433.31,293.49Zm-37.32.39-70-9.8a5.74,5.74,0,0,1-3.74-9.12l46-60a3.85,3.85,0,0,1,6.62.86l28.68,68.41A7,7,0,0,1,396,293.88Zm30.22-2.32-46.56-92.48a5.41,5.41,0,0,0-9.33-.56l-58.13,88a8,8,0,0,0,6.11,12.3l98.45,6.88A9.79,9.79,0,0,0,426.21,291.56ZM396,293.88l-70-9.8a5.74,5.74,0,0,1-3.74-9.12l46-60a3.85,3.85,0,0,1,6.62.86l28.68,68.41A7,7,0,0,1,396,293.88Zm23.77-4.26-41.4-85.81a4.92,4.92,0,0,0-8.51-.65l-54.91,80.06a7.33,7.33,0,0,0,5.42,11.43l90.46,7.91A9.06,9.06,0,0,0,419.76,289.62ZM396,293.88l-70-9.8a5.74,5.74,0,0,1-3.74-9.12l46-60a3.85,3.85,0,0,1,6.62.86l28.68,68.41A7,7,0,0,1,396,293.88Zm17.84-6.1-36.67-79.63a4.58,4.58,0,0,0-7.87-.73l-51.77,72.75a6.75,6.75,0,0,0,4.78,10.61l83.1,8.73A8.3,8.3,0,0,0,413.83,287.78ZM396,293.88l-70-9.8a5.74,5.74,0,0,1-3.74-9.12l46-60a3.85,3.85,0,0,1,6.62.86l28.68,68.41A7,7,0,0,1,396,293.88ZM408.41,286,376,212.15a4.2,4.2,0,0,0-7.22-.82l-48.8,66.13a6.19,6.19,0,0,0,4.26,9.8l76.27,9.37A7.65,7.65,0,0,0,408.41,286ZM396,293.88l-70-9.8a5.74,5.74,0,0,1-3.74-9.12l46-60a3.85,3.85,0,0,1,6.62.86l28.68,68.41A7,7,0,0,1,396,293.88Z"/></svg>