<svg id="Layer_1" data-name="Layer 1" xmlns="http://www.w3.org/2000/svg" viewBox="0 0 657.06 111.13"><defs><style>.cls-1{fill:#fff;}.cls-2{fill:none;stroke:#fff;stroke-miterlimit:10;stroke-width:0.46px;}</style></defs><title>white_no_padding</title><path class="cls-1" d="M132.28,23.65A2.33,2.33,0,0,1,134.61,26V87a2.34,2.34,0,0,1-2.33,2.33H117A2.34,2.34,0,0,1,114.64,87V76.78a2.34,2.34,0,0,0-2.33-2.33H101.55a2.34,2.34,0,0,0-2.33,2.33V87a2.34,2.34,0,0,1-2.33,2.33H81.58A2.34,2.34,0,0,1,79.25,87V26a2.33,2.33,0,0,1,2.33-2.32H96.89A2.33,2.33,0,0,1,99.22,26V36.19a2.34,2.34,0,0,0,2.33,2.33h10.76a2.34,2.34,0,0,0,2.33-2.33V26A2.33,2.33,0,0,1,117,23.65Z"/><path class="cls-1" d="M173.73,37.69a14.89,14.89,0,1,1-14.89-14.9A14.89,14.89,0,0,1,173.73,37.69ZM148.16,58.3a2.32,2.32,0,0,0-2.31,2.31V87.87a2.32,2.32,0,0,0,2.31,2.31h20.65a2.32,2.32,0,0,0,2.31-2.31V60.61a2.32,2.32,0,0,0-2.31-2.31Z"/><path class="cls-1" d="M211,44.84a2.34,2.34,0,0,0-2.33,2.33v3.56A2.34,2.34,0,0,0,211,53.06h5.34a2.34,2.34,0,0,1,2.33,2.33V67.17a2.34,2.34,0,0,1-2.33,2.33H211a2.34,2.34,0,0,0-2.33,2.33V87a2.34,2.34,0,0,1-2.33,2.33H185.47A2.34,2.34,0,0,1,183.14,87V25.93a2.34,2.34,0,0,1,2.33-2.33h30.85a2.34,2.34,0,0,1,2.33,2.33V42.51a2.34,2.34,0,0,1-2.33,2.33Z"/><path class="cls-1" d="M271.07,42.55a2.33,2.33,0,0,1-2.32,2.33h-5.32a2.32,2.32,0,0,0-2.32,2.32V87a2.33,2.33,0,0,1-2.33,2.32H238A2.33,2.33,0,0,1,235.67,87V47.2a2.33,2.33,0,0,0-2.32-2.32H228a2.33,2.33,0,0,1-2.32-2.33V26A2.33,2.33,0,0,1,228,23.7h40.72A2.33,2.33,0,0,1,271.07,26Z"/><path class="cls-1" d="M389.35,23.68a23.93,23.93,0,1,1,0,47.85V87A2.33,2.33,0,0,1,387,89.3H365A2.33,2.33,0,0,1,362.7,87V26A2.32,2.32,0,0,1,365,23.68h24.33Zm-1.58,17.94a5.9,5.9,0,1,0,5.9,5.89A5.9,5.9,0,0,0,387.77,41.62Z"/><path class="cls-1" d="M447,23.68a23.93,23.93,0,0,1,0,47.85V87a2.34,2.34,0,0,1-2.33,2.33h-22A2.34,2.34,0,0,1,420.36,87V26a2.33,2.33,0,0,1,2.32-2.32H447Zm-1.59,17.94a5.9,5.9,0,1,0,5.9,5.89A5.89,5.89,0,0,0,445.43,41.62Z"/><path class="cls-1" d="M505.81,49.13a2.34,2.34,0,0,0-2.33,2.33V61.52a2.34,2.34,0,0,0,2.33,2.32h10.27a2.32,2.32,0,0,1,2.32,2.33V87a2.33,2.33,0,0,1-2.32,2.33H480.35A2.34,2.34,0,0,1,478,87V26a2.34,2.34,0,0,1,2.33-2.33h35.73A2.33,2.33,0,0,1,518.4,26V46.81a2.32,2.32,0,0,1-2.32,2.32Z"/><path class="cls-1" d="M549.35,79.08c-.81-1-2.5-.67-2.5.61V87a2.33,2.33,0,0,1-2.33,2.32H530.13A2.33,2.33,0,0,1,527.81,87V26a2.34,2.34,0,0,1,2.32-2.33h14.35a4.29,4.29,0,0,1,3.89,1.71l7,8.49c.81,1,2.5.66,2.5-.62V26a2.34,2.34,0,0,1,2.33-2.33h14.39A2.34,2.34,0,0,1,576.91,26V87a2.33,2.33,0,0,1-2.32,2.32H560.24a4.33,4.33,0,0,1-3.9-1.71Z"/><path class="cls-1" d="M633.85,42.54a2.45,2.45,0,0,1-2.55,2.33h-5.85a2.45,2.45,0,0,0-2.55,2.32V87a2.45,2.45,0,0,1-2.56,2.32H586.53A2.45,2.45,0,0,1,584,87V70.43a2.45,2.45,0,0,1,2.56-2.32h5.84a2.46,2.46,0,0,0,2.56-2.33V26a2.45,2.45,0,0,1,2.55-2.33H631.3A2.44,2.44,0,0,1,633.85,26Z"/><path class="cls-2" d="M67.05,22.24H30.92a2.44,2.44,0,0,0-2.44,2.46l.12,39.6v2a2.45,2.45,0,0,1-.15.85.2.2,0,0,0,0,.05s0,0,0,0a2.43,2.43,0,0,1-2.19,1.48H26l-2.59,0-2.85.06-1.37,0a1.8,1.8,0,0,0-1.77,1.81V88.14a2.72,2.72,0,0,0,2.72,2.73H54.77A3.27,3.27,0,0,0,58,87.61v-27l-1.59,11.3a1.66,1.66,0,0,1-1.89,1.42L36.93,70.8a1.4,1.4,0,0,1-1.19-1.57l1-6.86h0s0,0,0,0h.16a1.55,1.55,0,0,0,1.54-.89h.16A1.46,1.46,0,0,0,40,60.64l.15,0A1.33,1.33,0,0,0,41.51,60h.13A1.22,1.22,0,0,0,43,58.9l2.91-21.12a1.26,1.26,0,0,1,1.41-1.07l18.36,2.57a1.13,1.13,0,0,1,.94,1.26l-.53,3.75h.22l.27,0h.32a1.27,1.27,0,0,0,.34,0,1.46,1.46,0,0,0,.41-.11,1.81,1.81,0,0,0,.44-.22,1.61,1.61,0,0,0,.49-.44,2.28,2.28,0,0,0,.6-1.56V24.4A2.15,2.15,0,0,0,67.05,22.24Z"/><path class="cls-2" d="M67,25.06l-33.24-.59a2.25,2.25,0,0,0-2.28,2.22l-.53,36.43v1.26l0,.53a1.73,1.73,0,0,1-.17.79.11.11,0,0,1,0,.06,2.23,2.23,0,0,1-2,1.34H22.16a1.65,1.65,0,0,0-1.65,1.64v0l-.3,16.11a2.54,2.54,0,0,0,2.47,2.55l31.9.55a3,3,0,0,0,3.05-3L58,61.94V60.77l0-.24v-.16l.24-13.55a1.52,1.52,0,0,1,1.51-1.5h6.68a3.16,3.16,0,0,0,.32,0l.38-.1a1.72,1.72,0,0,0,.43-.21,2.16,2.16,0,0,0,.43-.37,2,2,0,0,0,.54-1.15.92.92,0,0,0,0-.29l.28-16.09A2,2,0,0,0,67,25.06Z"/><path class="cls-2" d="M59.66,44.4A1.66,1.66,0,0,0,58,46.06v14.5l-1.59,11.3a1.66,1.66,0,0,1-1.89,1.42L36.93,70.8a1.4,1.4,0,0,1-1.19-1.57l1-6.86h0s0,0,0,0h.16a1.55,1.55,0,0,0,1.54-.89h.16A1.46,1.46,0,0,0,40,60.64l.15,0A1.33,1.33,0,0,0,41.51,60h.13A1.22,1.22,0,0,0,43,58.9l2.91-21.12a1.26,1.26,0,0,1,1.41-1.07l18.36,2.57a1.13,1.13,0,0,1,.94,1.26l-.53,3.75Z"/><path class="cls-2" d="M66.86,27.65,36.31,26.58a2,2,0,0,0-2.13,2L33.1,62.08v.4l0,.76v.48a2.23,2.23,0,0,1-.17.73v0A2.05,2.05,0,0,1,31,65.7h-.24l-2.13,0h-.07l-2.41,0L25,65.6a1.53,1.53,0,0,0-1.55,1.48v0l-.06,1.6-.47,13.2a2.32,2.32,0,0,0,2.23,2.39l29.33,1a2.77,2.77,0,0,0,2.86-2.66L58,61.94v-.4l0-.78v-.25l0-.24v-.14l.44-12.61A1.39,1.39,0,0,1,60,46.17l5.88.09h.25a1.62,1.62,0,0,0,.31,0,1.79,1.79,0,0,0,.35-.09,1.52,1.52,0,0,0,.39-.16,1.45,1.45,0,0,0,.42-.35,1.68,1.68,0,0,0,.5-1,.8.8,0,0,0,0-.27V43.9l.52-14.37A1.82,1.82,0,0,0,66.86,27.65Z"/><path class="cls-2" d="M58,60.56l-1.59,11.3a1.66,1.66,0,0,1-1.89,1.42L36.93,70.8a1.4,1.4,0,0,1-1.19-1.57l1-6.86h0s0,0,0,0h.16a1.55,1.55,0,0,0,1.54-.89h.16A1.46,1.46,0,0,0,40,60.64l.15,0A1.33,1.33,0,0,0,41.51,60h.13A1.22,1.22,0,0,0,43,58.9l2.91-21.12a1.26,1.26,0,0,1,1.41-1.07l18.36,2.57a1.13,1.13,0,0,1,.94,1.26l-.53,3.75-6.44.11A1.66,1.66,0,0,0,58,46.06Z"/><path class="cls-2" d="M66.71,30,38.62,28.54a1.9,1.9,0,0,0-2,1.81L35.1,61.16l0,.45,0,.59,0,.46a2,2,0,0,1-.16.66v0a1.88,1.88,0,0,1-1.77,1.09h-.21l-2-.07h-.07l-2.22-.08h0l-1,0a1.4,1.4,0,0,0-1.45,1.33v0L26,67.1,26,68.66,25.4,79.23a2.13,2.13,0,0,0,2,2.23l27,1.42A2.54,2.54,0,0,0,57,80.47l1-18.79v-.14l0-.78,0-.44V60l0-.08v-.06l.61-11.72A1.27,1.27,0,0,1,60.06,47l5.62.19H66a1.5,1.5,0,0,0,.32-.08,1.83,1.83,0,0,0,.77-.48,1.66,1.66,0,0,0,.49-.93.71.71,0,0,0,0-.24l0-.42,0-.86.64-12.35A1.67,1.67,0,0,0,66.71,30Z"/><path class="cls-2" d="M36.89,62.33a1.55,1.55,0,0,0,1.54-.89h.16A1.46,1.46,0,0,0,40,60.64l.15,0A1.33,1.33,0,0,0,41.51,60h.13A1.22,1.22,0,0,0,43,58.9l2.91-21.12a1.26,1.26,0,0,1,1.41-1.07l18.36,2.57a1.13,1.13,0,0,1,.94,1.26l-.53,3.75-6.44.11A1.66,1.66,0,0,0,58,46.06v14.5l-1.59,11.3a1.66,1.66,0,0,1-1.89,1.42L36.93,70.8a1.4,1.4,0,0,1-1.19-1.57l1-6.86h0s0,0,0,0Z"/><path class="cls-2" d="M66.54,32.21,40.72,30.39A1.74,1.74,0,0,0,38.87,32L37,60.32l0,.24-.05.75,0,.41a1.71,1.71,0,0,1-.15.6h.16a1.55,1.55,0,0,0,1.54-.89h.16A1.46,1.46,0,0,0,40,60.64l.15,0A1.33,1.33,0,0,0,41.51,60h.13A1.22,1.22,0,0,0,43,58.9l2.91-21.12a1.26,1.26,0,0,1,1.41-1.07l18.36,2.57a1.13,1.13,0,0,1,.94,1.26l-.53,3.75-6.44.11A1.66,1.66,0,0,0,58,46.06v14.5l-1.59,11.3a1.66,1.66,0,0,1-1.89,1.42L36.93,70.8a1.4,1.4,0,0,1-1.19-1.57l1-6.86a1.74,1.74,0,0,1-1.63,1h-.2l-1.81-.08H33l-2-.12h0l-.95,0a1.29,1.29,0,0,0-1.35,1.2v0l0,.44-.07.92-.09,1.44v.05s0,0,0,0l-.67,9.63a2,2,0,0,0,1.81,2.09l24.78,1.73a2.33,2.33,0,0,0,2.49-2.18L58,61.33v-.21l0-.36,0-.44V60l0-.08v-.18l0-.13.75-10.87a1.2,1.2,0,0,1,1.25-1.11l5.16.28a1.32,1.32,0,0,0,.28,0,1.11,1.11,0,0,0,.29-.07.75.75,0,0,0,.33-.14,1.13,1.13,0,0,0,.38-.29,1.49,1.49,0,0,0,.46-.85.52.52,0,0,0,0-.21l0-.37.06-.8.06-1L68,33.85A1.54,1.54,0,0,0,66.54,32.21Z"/><path class="cls-2" d="M66.35,34.21,42.63,32.14a1.61,1.61,0,0,0-1.74,1.46l-2.19,26-.08.9,0,.37a1.34,1.34,0,0,1-.16.56h.16A1.46,1.46,0,0,0,40,60.64l.15,0A1.33,1.33,0,0,0,41.51,60h.13A1.22,1.22,0,0,0,43,58.9l2.91-21.12a1.26,1.26,0,0,1,1.41-1.07l18.36,2.57a1.13,1.13,0,0,1,.94,1.26l-.53,3.75-6.44.11A1.66,1.66,0,0,0,58,46.06v14.5l-1.59,11.3a1.66,1.66,0,0,1-1.89,1.42L36.93,70.8a1.4,1.4,0,0,1-1.19-1.57l1-6.86h0s0,0,0,0h0l-1.66-.12h0l-1.87-.12h0L32.23,62A1.19,1.19,0,0,0,31,63.11h0l0,.39-.07.87-.12,1.32a.11.11,0,0,1,0,.06L30,74.62a1.79,1.79,0,0,0,1.63,1.94l22.77,2a2.14,2.14,0,0,0,2.33-2L58,61.12v-.2l0-.32,0-.28V60.2l0-.25v-.18l0-.13.9-10.32a1.1,1.1,0,0,1,1.17-1l4.74.33a1.2,1.2,0,0,0,.53-.07,1,1,0,0,0,.32-.12,1.12,1.12,0,0,0,.33-.24,1.45,1.45,0,0,0,.45-.81.37.37,0,0,0,0-.18l0-.36.07-.73.07-.86.1-1,.74-8.53A1.42,1.42,0,0,0,66.35,34.21Z"/><path class="cls-2" d="M66.14,36.05l-21.78-2.3a1.5,1.5,0,0,0-1.63,1.33L40.22,59.79l0,.35a1.21,1.21,0,0,1-.15.5l.15,0A1.33,1.33,0,0,0,41.51,60h.13A1.22,1.22,0,0,0,43,58.9l2.91-21.12a1.26,1.26,0,0,1,1.41-1.07l18.36,2.57a1.13,1.13,0,0,1,.94,1.26l-.53,3.75-6.44.11A1.66,1.66,0,0,0,58,46.06v14.5l-1.59,11.3a1.66,1.66,0,0,1-1.89,1.42L36.93,70.8a1.4,1.4,0,0,1-1.19-1.57l1-6.86h0s0,0,0,0h.16a1.55,1.55,0,0,0,1.54-.89l-1.52-.13h-.06l-1.71-.14h0l-.78-.07a1.09,1.09,0,0,0-1.19,1h0l0,.4-.08.76-.13,1.21v0L32,72.64a1.63,1.63,0,0,0,1.46,1.81l20.91,2.2a2,2,0,0,0,2.18-1.77L58,61v-.19l0-.17v-.09l0-.19V60.2l.09-.81v0l1-9.52a1,1,0,0,1,1.09-.89l4.36.38a1.29,1.29,0,0,0,.78-.17,1.69,1.69,0,0,0,.31-.21,1.41,1.41,0,0,0,.41-.71,1.17,1.17,0,0,0,0-.2l0-.32.07-.66.1-.81.1-.92.1-1,.72-6.78A1.31,1.31,0,0,0,66.14,36.05Z"/><path class="cls-2" d="M65.92,37.74l-20-2.46a1.37,1.37,0,0,0-1.52,1.19l-2.76,23a1.36,1.36,0,0,1-.13.46h.13A1.22,1.22,0,0,0,43,58.9l2.91-21.12a1.26,1.26,0,0,1,1.41-1.07l18.36,2.57a1.13,1.13,0,0,1,.94,1.26l-.53,3.75-6.44.11A1.66,1.66,0,0,0,58,46.06v14.5l-1.59,11.3a1.66,1.66,0,0,1-1.89,1.42L36.93,70.8a1.4,1.4,0,0,1-1.19-1.57l1-6.86h0s0,0,0,0h.16a1.55,1.55,0,0,0,1.54-.89h.16A1.46,1.46,0,0,0,40,60.64l-1.41-.13L37,60.34v0h0l-.74-.07a1,1,0,0,0-1.1.88v0l-.06.45L35,62.2l-.13,1.12v0l-.92,7.48a1.53,1.53,0,0,0,1.32,1.7l19.2,2.36a1.81,1.81,0,0,0,2-1.59L58,60.73l0-.2,0-.26,0-.24,0-.08v-.18l0-.13,0-.25v0l1.11-9a.93.93,0,0,1,1-.81l4,.42a1.34,1.34,0,0,0,1-.33,1.21,1.21,0,0,0,.39-.65c0-.06,0-.11,0-.17l0-.3.07-.62.08-.72.11-.87.12-.94.12-1L67,39.07A1.18,1.18,0,0,0,65.92,37.74Z"/><path class="cls-2" d="M40.22,59.79l-1.52-.18L38,59.53a.92.92,0,0,0-1,.79v0l0,.22-.11.74-.14,1v0s0,0,0,0h.16a1.55,1.55,0,0,0,1.54-.89h.16A1.46,1.46,0,0,0,40,60.64l.15,0A1.33,1.33,0,0,0,41.51,60Z"/><path class="cls-1" d="M66.63,40.54l-.53,3.75-6.44.11A1.66,1.66,0,0,0,58,46.06v14.5l-1.59,11.3a1.66,1.66,0,0,1-1.89,1.42L36.93,70.8a1.4,1.4,0,0,1-1.19-1.57l1-6.86h0s0,0,0,0h.16a1.55,1.55,0,0,0,1.54-.89h.16A1.46,1.46,0,0,0,40,60.64l.15,0A1.33,1.33,0,0,0,41.51,60h.13A1.22,1.22,0,0,0,43,58.9l2.91-21.12a1.26,1.26,0,0,1,1.41-1.07l18.36,2.57A1.13,1.13,0,0,1,66.63,40.54Z"/><path class="cls-2" d="M347.87,75.89H334.18a1.6,1.6,0,0,1,1,1.71l-.53,3.79a1.58,1.58,0,0,1-1.79,1.35l-17-2.39a1.59,1.59,0,0,1-1.36-1.8l.38-2.66h-.47a.5.5,0,0,0-.17,0,1.67,1.67,0,0,0-.39,0,2.33,2.33,0,0,0-.36.08,0,0,0,0,1,0,0,2.34,2.34,0,0,0-.35.13,2.29,2.29,0,0,0-.31.16l-.32.22A3.11,3.11,0,0,0,311.32,79v7.44a3.11,3.11,0,0,0,3.1,3.11h33.45A3.1,3.1,0,0,0,351,86.43V79A3.09,3.09,0,0,0,347.87,75.89Z"/><path class="cls-2" d="M343.44,76.07l-5-.18-.93,0-1.33-.06-.66,0-.6,0-.72,0-.57,0h-.46l-18.05-.63H315a1.27,1.27,0,0,0-.34,0,3.69,3.69,0,0,0-.61.16h0a1.51,1.51,0,0,0-.28.15.73.73,0,0,0-.26.17,1.73,1.73,0,0,0-.48.45,1.13,1.13,0,0,0-.2.28,2.44,2.44,0,0,0-.4,1.27l-.21,6.3a2.62,2.62,0,0,0,2.52,2.72l28.3,1a2.63,2.63,0,0,0,2.72-2.54l.21-6.3A2.6,2.6,0,0,0,343.44,76.07Z"/><path class="cls-2" d="M334.18,75.89a1.6,1.6,0,0,1,1,1.71l-.53,3.79a1.58,1.58,0,0,1-1.79,1.35l-17-2.39a1.59,1.59,0,0,1-1.36-1.8l.38-2.66Z"/><path class="cls-2" d="M341.49,76.09l-3.79-.2-.83,0-.66,0-.66,0-.68,0-.56,0-.76,0-.55,0h-.41l-17.12-.91a1.46,1.46,0,0,0-.42,0,1.44,1.44,0,0,0-.31,0l-.27.08a1,1,0,0,0-.26.15,1.59,1.59,0,0,0-.26.14,1.8,1.8,0,0,0-.44.43.92.92,0,0,0-.2.25,1.62,1.62,0,0,0-.17.32,2.2,2.2,0,0,0-.2.84l-.31,5.79a2.42,2.42,0,0,0,2.3,2.54l26,1.36a2.41,2.41,0,0,0,2.53-2.28l.31-5.79A2.41,2.41,0,0,0,341.49,76.09Z"/><path class="cls-2" d="M334.18,75.89a1.6,1.6,0,0,1,1,1.71l-.53,3.79a1.58,1.58,0,0,1-1.79,1.35l-17-2.39a1.59,1.59,0,0,1-1.36-1.8l.38-2.66Z"/><path class="cls-2" d="M339.69,76.08,337,75.89l-.79,0-.67,0-.68,0-1.11-.08-.84-.06-.52,0-.36,0-16.25-1.14a1.92,1.92,0,0,0-.68.07.79.79,0,0,0-.26.08,1,1,0,0,0-.26.12.61.61,0,0,0-.22.13,2.05,2.05,0,0,0-.42.36,1.7,1.7,0,0,0-.18.26,1.35,1.35,0,0,0-.15.26,2,2,0,0,0-.12.34,0,0,0,0,1,0,0,2.76,2.76,0,0,0-.07.43L313,81.79a2.25,2.25,0,0,0,2.07,2.38L339,85.83a2.23,2.23,0,0,0,2.37-2.07l.38-5.31A2.23,2.23,0,0,0,339.69,76.08Z"/><path class="cls-2" d="M334.66,81.39a1.58,1.58,0,0,1-1.79,1.35l-17-2.39a1.59,1.59,0,0,1-1.36-1.8l.38-2.66h19.29a1.6,1.6,0,0,1,1,1.71Z"/><path class="cls-2" d="M338,76l-1.68-.15-.74-.06-.66-.06-.64,0-.55,0-1.68-.15-.34,0-.28,0-.06,0-.25,0-15.08-1.31a1.84,1.84,0,0,0-.84.11.82.82,0,0,0-.24.1,1.38,1.38,0,0,1-.17.08,1.9,1.9,0,0,0-.45.4.82.82,0,0,0-.16.22.92.92,0,0,0-.15.25h0a2.49,2.49,0,0,0-.11.29,1.51,1.51,0,0,0-.08.38v0l-.43,4.9a2.05,2.05,0,0,0,1.87,2.21l22,1.93a2.07,2.07,0,0,0,2.22-1.87l.42-4.89A2,2,0,0,0,338,76Z"/><path class="cls-2" d="M334.66,81.39a1.58,1.58,0,0,1-1.79,1.35l-17-2.39a1.59,1.59,0,0,1-1.36-1.8l.38-2.66h19.29a1.6,1.6,0,0,1,1,1.71Z"/><path class="cls-2" d="M336.53,76l-.9-.1-.73-.08-.67-.06-.68-.07-.63-.07-.84-.09-.34,0-.28,0-.06,0-.25,0-14.8-1.56a1.74,1.74,0,0,0-1,.18.45.45,0,0,0-.17.08s0,0,0,0a1.31,1.31,0,0,0-.32.25,1.94,1.94,0,0,0-.23.27l-.12.2a2.23,2.23,0,0,0-.12.31,3,3,0,0,0-.06.32v0l0,.38L313.81,80a1.89,1.89,0,0,0,1.68,2.07l20.17,2.11a1.89,1.89,0,0,0,2.07-1.67l.46-4.49A1.86,1.86,0,0,0,336.53,76Z"/><path class="cls-2" d="M334.66,81.39a1.58,1.58,0,0,1-1.79,1.35l-17-2.39a1.59,1.59,0,0,1-1.36-1.8l.38-2.66h19.29a1.6,1.6,0,0,1,1,1.71Z"/><path class="cls-2" d="M335.13,75.91l-.11,0-.72-.09-.64-.08-.66-.08-.6-.07-.66-.08-.28,0-.06,0-.25,0-.25,0-14.29-1.77a1.64,1.64,0,0,0-1.11.25,1.06,1.06,0,0,0-.33.26s0,0,0,0a.59.59,0,0,0-.15.17,1.76,1.76,0,0,0-.14.23l-.11.24c0,.11-.05.21-.07.32h0l0,.34-.05.42-.41,3.37a1.74,1.74,0,0,0,1.5,1.93l18.52,2.27A1.74,1.74,0,0,0,336.13,82l.5-4.12A1.72,1.72,0,0,0,335.13,75.91Z"/><path class="cls-2" d="M334.66,81.39a1.58,1.58,0,0,1-1.79,1.35l-17-2.39a1.59,1.59,0,0,1-1.36-1.8l.38-2.66h19.29a1.6,1.6,0,0,1,1,1.71Z"/><path class="cls-2" d="M333.85,75.8h0l-.62-.09-.61-.08-.55-.08-.58-.08-.06,0-.25,0-.25,0-14-2a1.56,1.56,0,0,0-1.35.46.67.67,0,0,0-.16.18,1.08,1.08,0,0,0-.11.18,1.15,1.15,0,0,0-.12.25,2.14,2.14,0,0,0-.06.27v0l0,.31-.06.39-.06.42h19.29A1.35,1.35,0,0,0,333.85,75.8Z"/><path class="cls-2" d="M356.1,60.14,333.18,21.59a2.34,2.34,0,0,0-4,0l-22.46,39.8a3.45,3.45,0,0,0,3,5.15h42.76A4.26,4.26,0,0,0,356.1,60.14Z"/><path class="cls-2" d="M336.66,58.39l-21.73-3a1.78,1.78,0,0,1-1.16-2.83L328,33.89a1.19,1.19,0,0,1,2.05.27L339,55.39A2.18,2.18,0,0,1,336.66,58.39Z"/><path class="cls-2" d="M353.24,59.51,332.78,23.69a2.13,2.13,0,0,0-3.71,0l-21.3,36.25a3.17,3.17,0,0,0,2.67,4.78l39.34.68A3.91,3.91,0,0,0,353.24,59.51Z"/><path class="cls-2" d="M336.66,58.39l-21.73-3a1.78,1.78,0,0,1-1.16-2.83L328,33.89a1.19,1.19,0,0,1,2.05.27L339,55.39A2.18,2.18,0,0,1,336.66,58.39Z"/><path class="cls-2" d="M345.56,76l-6.15-.11-1.87,0-.67,0h-1.26l-.71,0h-1.08L315,75.47h-.32a1.22,1.22,0,0,0-.34,0c-.12,0-.24,0-.35.06l-.32.12-.31.16a1.18,1.18,0,0,0-.28.2,2.47,2.47,0,0,0-.52.5,2.81,2.81,0,0,0-.61,1.72l-.12,6.84a2.86,2.86,0,0,0,2.8,2.91l30.77.53a2.84,2.84,0,0,0,2.89-2.8l.12-6.85A2.85,2.85,0,0,0,345.56,76Z"/><path class="cls-2" d="M334.18,75.89a1.6,1.6,0,0,1,1,1.71l-.53,3.79a1.58,1.58,0,0,1-1.79,1.35l-17-2.39a1.59,1.59,0,0,1-1.36-1.8l.38-2.66Z"/><path class="cls-2" d="M350.63,58.88,332.38,25.59a2,2,0,0,0-3.42-.08l-20.17,33A2.91,2.91,0,0,0,311.18,63l36.17,1.27A3.6,3.6,0,0,0,350.63,58.88Z"/><path class="cls-2" d="M336.66,58.39l-21.73-3a1.78,1.78,0,0,1-1.16-2.83L328,33.89a1.19,1.19,0,0,1,2.05.27L339,55.39A2.18,2.18,0,0,1,336.66,58.39Z"/><path class="cls-2" d="M348.24,58.27,332,27.35a1.82,1.82,0,0,0-3.14-.13l-19.09,30a2.7,2.7,0,0,0,2.13,4.13l33.25,1.74A3.32,3.32,0,0,0,348.24,58.27Z"/><path class="cls-2" d="M336.66,58.39l-21.73-3a1.78,1.78,0,0,1-1.16-2.83L328,33.89a1.19,1.19,0,0,1,2.05.27L339,55.39A2.18,2.18,0,0,1,336.66,58.39Z"/><path class="cls-2" d="M346,57.67,331.59,29a1.68,1.68,0,0,0-2.9-.17l-18,27.32a2.47,2.47,0,0,0,1.89,3.82l30.55,2.13A3,3,0,0,0,346,57.67Z"/><path class="cls-2" d="M336.66,58.39l-21.73-3a1.78,1.78,0,0,1-1.16-2.83L328,33.89a1.19,1.19,0,0,1,2.05.27L339,55.39A2.18,2.18,0,0,1,336.66,58.39Z"/><path class="cls-2" d="M344,57.07,331.19,30.44a1.52,1.52,0,0,0-2.64-.2l-17,24.84a2.28,2.28,0,0,0,1.68,3.55l28.07,2.45A2.81,2.81,0,0,0,344,57.07Z"/><path class="cls-2" d="M336.66,58.39l-21.73-3a1.78,1.78,0,0,1-1.16-2.83L328,33.89a1.19,1.19,0,0,1,2.05.27L339,55.39A2.18,2.18,0,0,1,336.66,58.39Z"/><path class="cls-2" d="M342.2,56.49,330.82,31.78a1.43,1.43,0,0,0-2.45-.22L312.31,54.13a2.1,2.1,0,0,0,1.48,3.3l25.79,2.71A2.59,2.59,0,0,0,342.2,56.49Z"/><path class="cls-2" d="M336.66,58.39l-21.73-3a1.78,1.78,0,0,1-1.16-2.83L328,33.89a1.19,1.19,0,0,1,2.05.27L339,55.39A2.18,2.18,0,0,1,336.66,58.39Z"/><path class="cls-2" d="M340.52,55.93,330.44,33a1.3,1.3,0,0,0-2.24-.25L313.06,53.29a1.91,1.91,0,0,0,1.32,3l23.67,2.91A2.38,2.38,0,0,0,340.52,55.93Z"/><path class="cls-2" d="M336.66,58.39l-21.73-3a1.78,1.78,0,0,1-1.16-2.83L328,33.89a1.19,1.19,0,0,1,2.05.27L339,55.39A2.18,2.18,0,0,1,336.66,58.39Z"/><path class="cls-1" d="M335.19,77.93l-.53,3.78a1.58,1.58,0,0,1-1.79,1.35l-17-2.39a1.59,1.59,0,0,1-1.36-1.8l.38-2.65h19.29A1.59,1.59,0,0,1,335.19,77.93Z"/><path class="cls-1" d="M336.66,58.71l-21.73-3a1.78,1.78,0,0,1-1.16-2.83L328,34.22a1.19,1.19,0,0,1,2.05.26L339,55.71A2.18,2.18,0,0,1,336.66,58.71Z"/></svg>