<svg xmlns="http://www.w3.org/2000/svg" viewBox="0 0 355.45 224.88"><defs><style>.cls-1{fill:none;stroke:#231f20;stroke-miterlimit:10;stroke-width:1.2px;}</style></defs><title>Asset 1</title><g id="Layer_2" data-name="Layer 2"><g id="Layer_1-2" data-name="Layer 1"><path class="cls-1" d="M153.87,12.53H42.39a7.54,7.54,0,0,0-7.52,7.57l.39,122.19v6a7.65,7.65,0,0,1-.47,2.62s0,.09,0,.17,0,0,0,.09a7.47,7.47,0,0,1-6.75,4.56h-.86l-8,.17-8.81.17-4.21.09A5.58,5.58,0,0,0,.6,161.76v54.09A8.4,8.4,0,0,0,9,224.28H116a10.07,10.07,0,0,0,10.06-10.06V130.76l-4.9,34.87a5.16,5.16,0,0,1-5.85,4.39L61,162.36a4.32,4.32,0,0,1-3.7-4.86l3-21.15a0,0,0,0,1,0,0,.16.16,0,0,1,0-.13l.52,0a4.77,4.77,0,0,0,4.73-2.75l.52,0A4.49,4.49,0,0,0,70.51,131l.47,0a4,4,0,0,0,4.08-2.19l.43,0a3.77,3.77,0,0,0,4.21-3.27l9-65.18A3.87,3.87,0,0,1,93,57.16l56.67,8A3.43,3.43,0,0,1,152.58,69l-1.63,11.57h.69l.82,0h1a4.33,4.33,0,0,0,1.07-.13,4.13,4.13,0,0,0,1.25-.34,5.16,5.16,0,0,0,1.38-.69A5,5,0,0,0,158.64,78a7.15,7.15,0,0,0,1.85-4.82v-54A6.63,6.63,0,0,0,153.87,12.53Zm-.22,8.68L51.12,19.41a7,7,0,0,0-7.05,6.84L42.43,138.67l0,1.2v2.67l0,1.63a5.82,5.82,0,0,1-.52,2.45c0,.09,0,.13,0,.17a6.85,6.85,0,0,1-6.28,4.13H27.34l-8.08,0H15.39A5.12,5.12,0,0,0,10.27,156v0l-.9,49.7A7.79,7.79,0,0,0,17,213.66l98.41,1.72a9.27,9.27,0,0,0,9.42-9.11L126.06,135v-.82l0-.43v-2.36l0-.73v-.52l.73-41.79a4.72,4.72,0,0,1,4.69-4.64h20.59a7.06,7.06,0,0,0,1-.09,9.17,9.17,0,0,0,1.16-.3,6.41,6.41,0,0,0,1.33-.64A5.76,5.76,0,0,0,157,81.54,6.17,6.17,0,0,0,158.64,78a3.27,3.27,0,0,0,.13-.9l.86-49.66A6.1,6.1,0,0,0,153.66,21.22ZM131.09,80.89a5.11,5.11,0,0,0-5,5.12v44.76l-4.9,34.87a5.16,5.16,0,0,1-5.85,4.39L61,162.36a4.32,4.32,0,0,1-3.7-4.86l3-21.15a0,0,0,0,1,0,0,.16.16,0,0,1,0-.13l.52,0a4.77,4.77,0,0,0,4.73-2.75l.52,0A4.49,4.49,0,0,0,70.51,131l.47,0a4,4,0,0,0,4.08-2.19l.43,0a3.77,3.77,0,0,0,4.21-3.27l9-65.18A3.87,3.87,0,0,1,93,57.16l56.67,8A3.43,3.43,0,0,1,152.58,69l-1.63,11.57Zm22.23-51.68L59,25.9a6.33,6.33,0,0,0-6.58,6.15l-3.31,103.4,0,1.25L49,139l0,1.51a6.53,6.53,0,0,1-.52,2.24v.09a6.36,6.36,0,0,1-5.89,3.78h-.73l-6.58-.13H35l-7.44-.13-3.57,0a4.69,4.69,0,0,0-4.77,4.56V151l-.17,4.94-1.46,40.72A7.18,7.18,0,0,0,24.5,204l90.5,3.14a8.54,8.54,0,0,0,8.81-8.21L126.06,135v-.3l0-.95.09-2.41v-.77l0-.73v-.43l1.38-38.91A4.3,4.3,0,0,1,132,86.35l18.14.3h.77a3.52,3.52,0,0,0,.95-.09,4.36,4.36,0,0,0,1.07-.26,5.08,5.08,0,0,0,1.2-.52,4.54,4.54,0,0,0,1.29-1.07A5.2,5.2,0,0,0,157,81.54a2.5,2.5,0,0,0,.13-.82l0-1.38L158.73,35A5.62,5.62,0,0,0,153.31,29.21ZM126.06,130.76l-4.9,34.87a5.16,5.16,0,0,1-5.85,4.39L61,162.36a4.32,4.32,0,0,1-3.7-4.86l3-21.15a0,0,0,0,1,0,0,.16.16,0,0,1,0-.13l.52,0a4.77,4.77,0,0,0,4.73-2.75l.52,0A4.49,4.49,0,0,0,70.51,131l.47,0a4,4,0,0,0,4.08-2.19l.43,0a3.77,3.77,0,0,0,4.21-3.27l9-65.18A3.87,3.87,0,0,1,93,57.16l56.67,8A3.43,3.43,0,0,1,152.58,69l-1.63,11.57-19.86.34a5.11,5.11,0,0,0-5,5.12Zm26.78-94.24L66.17,32A5.87,5.87,0,0,0,60,37.55l-4.73,95.06,0,1.38-.09,1.85-.09,1.42a6.06,6.06,0,0,1-.47,2s0,.09,0,.13a5.82,5.82,0,0,1-5.46,3.35h-.65l-6.06-.22h-.22l-6.84-.26h-.09l-3.18-.09a4.34,4.34,0,0,0-4.47,4.13v0l-.26,4.56-.26,4.82-1.72,32.63a6.58,6.58,0,0,0,6.23,6.88l83.19,4.39A7.83,7.83,0,0,0,123,192.2l3.05-58,0-.43.09-2.41.09-1.33,0-.39v-.52l0-.26v-.17l1.89-36.16a3.94,3.94,0,0,1,4.08-3.78l17.33.6h.09a5.19,5.19,0,0,0,.82,0,3.73,3.73,0,0,0,1-.26,3.11,3.11,0,0,0,1.16-.52,3.27,3.27,0,0,0,1.2-.95,5,5,0,0,0,1.51-2.88,2.18,2.18,0,0,0,.13-.73l.09-1.29.13-2.67,2-38.09A5.18,5.18,0,0,0,152.84,36.52Zm-92,99.7a4.77,4.77,0,0,0,4.73-2.75l.52,0A4.49,4.49,0,0,0,70.51,131l.47,0a4,4,0,0,0,4.08-2.19l.43,0a3.77,3.77,0,0,0,4.21-3.27l9-65.18A3.87,3.87,0,0,1,93,57.16l56.67,8A3.43,3.43,0,0,1,152.58,69l-1.63,11.57-19.86.34a5.11,5.11,0,0,0-5,5.12v44.76l-4.9,34.87a5.16,5.16,0,0,1-5.85,4.39L61,162.36a4.32,4.32,0,0,1-3.7-4.86l3-21.15a0,0,0,0,1,0,0,.16.16,0,0,1,0-.13Zm91.49-93L72.66,37.68a5.36,5.36,0,0,0-5.72,5L61.09,130l0,.73-.17,2.32-.09,1.25a5.33,5.33,0,0,1-.47,1.85l.52,0a4.77,4.77,0,0,0,4.73-2.75l.52,0A4.49,4.49,0,0,0,70.51,131l.47,0a4,4,0,0,0,4.08-2.19l.43,0a3.77,3.77,0,0,0,4.21-3.27l9-65.18A3.87,3.87,0,0,1,93,57.16l56.67,8A3.43,3.43,0,0,1,152.58,69l-1.63,11.57-19.86.34a5.11,5.11,0,0,0-5,5.12v44.76l-4.9,34.87a5.16,5.16,0,0,1-5.85,4.39L61,162.36a4.32,4.32,0,0,1-3.7-4.86l3-21.15a5.37,5.37,0,0,1-5,3l-.6,0L49,139h-.17l-6.32-.34h-.09l-2.92-.13a4,4,0,0,0-4.17,3.7v0l-.09,1.38L35,146.5l-.3,4.43v.17s0,0,0,.09l-2.06,29.71a6.08,6.08,0,0,0,5.59,6.45l76.44,5.33a7.19,7.19,0,0,0,7.7-6.71l3.7-52.84,0-.65.09-1.12.09-1.33,0-.39v-.52l0-.26v-.17l0-.26v-.13l0-.39,2.32-33.53A3.71,3.71,0,0,1,132.63,91l15.91.86a5.75,5.75,0,0,0,.86,0,3.46,3.46,0,0,0,.9-.21,2.77,2.77,0,0,0,1-.43,3.52,3.52,0,0,0,1.16-.9,4.65,4.65,0,0,0,1.42-2.62A1.72,1.72,0,0,0,154,87l.09-1.16.17-2.45.21-3,2.24-32A4.76,4.76,0,0,0,152.32,43.27Zm-.6,6.19L78.55,43.06a5,5,0,0,0-5.37,4.51l-6.75,80.27-.26,2.75-.09,1.16a4,4,0,0,1-.52,1.72l.52,0A4.49,4.49,0,0,0,70.51,131l.47,0a4,4,0,0,0,4.08-2.19l.43,0a3.77,3.77,0,0,0,4.21-3.27l9-65.18A3.87,3.87,0,0,1,93,57.16l56.67,8A3.43,3.43,0,0,1,152.58,69l-1.63,11.57-19.86.34a5.11,5.11,0,0,0-5,5.12v44.76l-4.9,34.87a5.16,5.16,0,0,1-5.85,4.39L61,162.36a4.32,4.32,0,0,1-3.7-4.86l3-21.15a0,0,0,0,1,0,0,.16.16,0,0,1,0-.13h0l-5.12-.34H55l-5.76-.39h-.09l-2.71-.17a3.68,3.68,0,0,0-3.91,3.35v0l-.13,1.2-.22,2.67-.34,4.08c0,.09,0,.13,0,.17l-2.36,27.34a5.51,5.51,0,0,0,5,6l70.25,6.15a6.59,6.59,0,0,0,7.18-6l4.17-47.77,0-.6.09-1,.09-.86,0-.39,0-.77v-.17l0-.26v-.13l0-.39,2.79-31.86A3.39,3.39,0,0,1,132.85,93l14.62,1a4.17,4.17,0,0,0,1.63-.22,2.81,2.81,0,0,0,1-.39,3.48,3.48,0,0,0,1-.73,4.49,4.49,0,0,0,1.38-2.49,1.33,1.33,0,0,0,.13-.56l.09-1.12.22-2.24.22-2.67.3-3.14,2.28-26.31A4.36,4.36,0,0,0,151.72,49.46Zm-.64,5.67L83.88,48a4.61,4.61,0,0,0-5,4.08L71.11,128.4,71,129.47a3.84,3.84,0,0,1-.47,1.55l.47,0a4,4,0,0,0,4.08-2.19l.43,0a3.77,3.77,0,0,0,4.21-3.27l9-65.18A3.87,3.87,0,0,1,93,57.16l56.67,8A3.43,3.43,0,0,1,152.58,69l-1.63,11.57-19.86.34a5.11,5.11,0,0,0-5,5.12v44.76l-4.9,34.87a5.16,5.16,0,0,1-5.85,4.39L61,162.36a4.32,4.32,0,0,1-3.7-4.86l3-21.15a0,0,0,0,1,0,0,.16.16,0,0,1,0-.13l.52,0a4.77,4.77,0,0,0,4.73-2.75l-4.69-.39-.17,0-5.29-.43h-.13l-2.41-.21a3.34,3.34,0,0,0-3.65,3v0l-.13,1.25L48.84,139l-.39,3.74v.09L45.79,168a5.07,5.07,0,0,0,4.51,5.59l64.53,6.79a6.12,6.12,0,0,0,6.71-5.46l4.51-43,0-.6.09-.52v-.3l.09-.56,0-.39.26-2.49V127l3.1-29.36A3.08,3.08,0,0,1,133,94.91l13.46,1.16a3.84,3.84,0,0,0,2.41-.52,3.68,3.68,0,0,0,.95-.65,4.22,4.22,0,0,0,1.29-2.19,2.44,2.44,0,0,0,.13-.6l.09-1,.21-2.06.3-2.49.3-2.84.3-3.22,2.24-20.94A4,4,0,0,0,151.08,55.14Zm-.69,5.2-61.7-7.57A4.18,4.18,0,0,0,84,56.43l-8.51,71a3.91,3.91,0,0,1-.43,1.42l.43,0a3.77,3.77,0,0,0,4.21-3.27l9-65.18A3.87,3.87,0,0,1,93,57.16l56.67,8A3.43,3.43,0,0,1,152.58,69l-1.63,11.57-19.86.34a5.11,5.11,0,0,0-5,5.12v44.76l-4.9,34.87a5.16,5.16,0,0,1-5.85,4.39L61,162.36a4.32,4.32,0,0,1-3.7-4.86l3-21.15a0,0,0,0,1,0,0,.16.16,0,0,1,0-.13l.52,0a4.77,4.77,0,0,0,4.73-2.75l.52,0A4.49,4.49,0,0,0,70.51,131l-4.34-.43-5-.52v0h0l-2.28-.21a3.09,3.09,0,0,0-3.4,2.71v.09L55.24,134,55,135.84l-.39,3.44s0,.09,0,.13l-2.84,23.09a4.72,4.72,0,0,0,4.08,5.25L115,175a5.58,5.58,0,0,0,6.23-4.9l4.77-38.82.09-.6.09-.82.09-.73,0-.26v-.17l0-.26v-.13l0-.39.13-.77V127L130,99.12a2.88,2.88,0,0,1,3.14-2.49l12.34,1.29a4.13,4.13,0,0,0,3.14-1,3.62,3.62,0,0,0,1.2-2,2.26,2.26,0,0,0,.13-.52l.13-.95.21-1.89.26-2.24.34-2.67.34-2.92.39-3.18,2-16.08A3.68,3.68,0,0,0,150.39,60.34Zm-19.3,20.55a5.11,5.11,0,0,0-5,5.12v44.76l.09-.6.09-.73.13-.73,0-.26v-.13l0-.39.13-.77V127l3.74-26.53a2.64,2.64,0,0,1,2.92-2.24l11.35,1.38a3.73,3.73,0,0,0,4-2.71,2.27,2.27,0,0,0,.13-.52l.13-.86.21-1.72.3-2.06.34-2.41.39-2.71.39-2.92.43-3.18Zm-60,47.51-4.69-.56-2.11-.26A2.85,2.85,0,0,0,61.13,130v0l-.09.69L60.71,133l-.43,3.14v.13a.16.16,0,0,1,0-.13l.52,0a4.77,4.77,0,0,0,4.73-2.75l.52,0A4.49,4.49,0,0,0,70.51,131l.47,0a4,4,0,0,0,4.08-2.19Zm255.25,50.86H282.25a5.15,5.15,0,0,1,3.27,5.5L283.8,197a5.09,5.09,0,0,1-5.76,4.34l-54.77-7.7a5.11,5.11,0,0,1-4.38-5.8l1.2-8.56h-1.5a2.45,2.45,0,0,0-.56,0,6.13,6.13,0,0,0-1.25.13,11,11,0,0,0-1.16.26,0,0,0,0,1,0,0,8.5,8.5,0,0,0-1.12.43,5.46,5.46,0,0,0-1,.52c-.34.21-.69.43-1,.69a10.05,10.05,0,0,0-3.83,7.87v24a10,10,0,0,0,10,10H326.36a10,10,0,0,0,10-10v-24A10,10,0,0,0,326.36,179.26Zm-7.44.34-19.82-.34-6-.09-2.15,0-2.11,0-2,0-2.28,0-1.94,0h-1.55l-60.79-1.07h-1a4.69,4.69,0,0,0-1.12.13,8.59,8.59,0,0,0-1.12.22l-1,.39c-.34.17-.69.34-1,.52a3.46,3.46,0,0,0-.9.64,7.37,7.37,0,0,0-1.68,1.59,9.16,9.16,0,0,0-2,5.55L210.07,209a9.24,9.24,0,0,0,9,9.37l99.14,1.72a9.18,9.18,0,0,0,9.33-9l.39-22.1A9.18,9.18,0,0,0,318.93,179.6Zm-36.67-.34a5.15,5.15,0,0,1,3.27,5.5L283.8,197a5.09,5.09,0,0,1-5.76,4.34l-54.77-7.7a5.11,5.11,0,0,1-4.38-5.8l1.2-8.56Zm29.84.56-16-.56-3-.09-4.3-.17-2.11-.09-1.93,0-2.32-.09-1.85-.09-1.46,0-58.17-2h-.47a4.33,4.33,0,0,0-1.07.13,3,3,0,0,0-1,.22,3.48,3.48,0,0,0-.95.3h0a9.08,9.08,0,0,0-.9.47,2.51,2.51,0,0,0-.82.56,5.59,5.59,0,0,0-1.55,1.46,3,3,0,0,0-.64.9,7.91,7.91,0,0,0-1.29,4.08l-.69,20.29a8.46,8.46,0,0,0,8.13,8.77L310.8,217a8.46,8.46,0,0,0,8.77-8.17l.69-20.29A8.43,8.43,0,0,0,312.09,179.82Zm-29.84-.56a5.15,5.15,0,0,1,3.27,5.5L283.8,197a5.09,5.09,0,0,1-5.76,4.34l-54.77-7.7a5.11,5.11,0,0,1-4.38-5.8l1.2-8.56Zm23.56.64-12.21-.64-2.67-.13-2.15-.13-2.11-.09-2.19-.13-1.81-.09-2.45-.13-1.76-.13-1.33,0L222,175.48a4.86,4.86,0,0,0-1.38.09,6.76,6.76,0,0,0-1,.17l-.86.26a3.35,3.35,0,0,0-.86.47,5,5,0,0,0-.82.47,5.4,5.4,0,0,0-1.42,1.38,2.84,2.84,0,0,0-.65.82,5.86,5.86,0,0,0-.56,1,7.14,7.14,0,0,0-.65,2.71l-1,18.66a7.82,7.82,0,0,0,7.4,8.17L304,214.09a7.78,7.78,0,0,0,8.17-7.35l1-18.66A7.75,7.75,0,0,0,305.81,179.91Zm-23.56-.64a5.15,5.15,0,0,1,3.27,5.5L283.8,197a5.09,5.09,0,0,1-5.76,4.34l-54.77-7.7a5.11,5.11,0,0,1-4.38-5.8l1.2-8.56Zm17.76.6-8.64-.6-2.54-.17-2.15-.17-2.19-.13-3.57-.26-2.71-.17-1.68-.13-1.16-.09L223,174.49a6.14,6.14,0,0,0-2.19.22,6,6,0,0,0-1.68.65,1.83,1.83,0,0,0-.73.43,5.64,5.64,0,0,0-1.33,1.16,5.78,5.78,0,0,0-.6.82,5.53,5.53,0,0,0-.47.86,4.59,4.59,0,0,0-.39,1.07,0,0,0,0,1,0,0,13.15,13.15,0,0,0-.22,1.38l-1.2,17.15a7.2,7.2,0,0,0,6.66,7.65l77,5.37a7.2,7.2,0,0,0,7.65-6.66l1.2-17.11A7.17,7.17,0,0,0,300,179.86ZM283.8,197a5.09,5.09,0,0,1-5.76,4.34l-54.77-7.7a5.11,5.11,0,0,1-4.38-5.8l1.2-8.56h62.17a5.15,5.15,0,0,1,3.27,5.5Zm10.88-17.24-5.42-.47-2.41-.22-2.11-.17-2.06-.17-1.76-.17-5.42-.47-1.12-.09-.9-.09-.17,0-.82-.09-48.58-4.21a6.36,6.36,0,0,0-2.71.34,3.08,3.08,0,0,0-.77.34,4.44,4.44,0,0,0-2,1.55,2.63,2.63,0,0,0-.52.69,3.12,3.12,0,0,0-.47.82h0a6.05,6.05,0,0,0-.34.95,5.4,5.4,0,0,0-.26,1.2v.09L215.4,195.3a6.62,6.62,0,0,0,6,7.14l70.77,6.19a6.63,6.63,0,0,0,7.14-6l1.38-15.74A6.6,6.6,0,0,0,294.68,179.73ZM283.8,197a5.09,5.09,0,0,1-5.76,4.34l-54.77-7.7a5.11,5.11,0,0,1-4.38-5.8l1.2-8.56h62.17a5.15,5.15,0,0,1,3.27,5.5Zm6-17.41-2.88-.3-2.36-.26-2.15-.22-2.19-.21-2-.21-2.71-.3-1.12-.09-.9-.09-.17,0-.82-.09-47.68-5a5.66,5.66,0,0,0-3.27.6,1.33,1.33,0,0,0-.56.26s-.09.09-.09.09a3.76,3.76,0,0,0-1,.82,4.56,4.56,0,0,0-.73.86l-.39.65a6.73,6.73,0,0,0-.39,1,8.78,8.78,0,0,0-.22,1v.09l-.13,1.2-1.42,13.28a6.1,6.1,0,0,0,5.42,6.66L287,206a6.07,6.07,0,0,0,6.66-5.37l1.51-14.45A6,6,0,0,0,289.82,179.56Zm-6,17.41a5.09,5.09,0,0,1-5.76,4.34l-54.77-7.7a5.11,5.11,0,0,1-4.38-5.8l1.2-8.56h62.17a5.15,5.15,0,0,1,3.27,5.5Zm1.51-17.67-.34,0-2.32-.3-2.06-.26-2.11-.26-1.93-.21-2.15-.26-.9-.09-.17,0-.82-.09-.82-.13-46-5.67a5.37,5.37,0,0,0-3.57.77,3.51,3.51,0,0,0-1.07.86s-.09.09-.09.09a1.94,1.94,0,0,0-.47.56,4.23,4.23,0,0,0-.47.73c-.13.26-.22.52-.34.77a8.82,8.82,0,0,0-.22,1v0l-.13,1.07-.17,1.38-1.33,10.83a5.63,5.63,0,0,0,4.86,6.23l59.68,7.31a5.6,5.6,0,0,0,6.23-4.86l1.63-13.29A5.57,5.57,0,0,0,285.3,179.3ZM283.8,197a5.09,5.09,0,0,1-5.76,4.34l-54.77-7.7a5.11,5.11,0,0,1-4.38-5.8l1.2-8.56h62.17a5.15,5.15,0,0,1,3.27,5.5Zm-2.62-18h-.09l-2-.3-2-.26-1.76-.26-1.89-.26-.17,0-.82-.09-.82-.13-45.27-6.36a5.08,5.08,0,0,0-4.34,1.46,2.27,2.27,0,0,0-.52.6,2.44,2.44,0,0,0-.34.56,2.85,2.85,0,0,0-.39.82,6.3,6.3,0,0,0-.22.86v.09l-.13,1-.17,1.25-.21,1.38h62.17A4.43,4.43,0,0,0,281.18,179Zm71.71-50.47L279,4.28a7.54,7.54,0,0,0-13,.13L193.64,132.66a11.12,11.12,0,0,0,9.67,16.6h137.8A13.72,13.72,0,0,0,352.89,128.49Zm-62.64-5.63-70-9.8a5.73,5.73,0,0,1-3.74-9.11l46-60a3.85,3.85,0,0,1,6.62.86l28.68,68.4A7,7,0,0,1,290.25,122.85Zm53.44,3.61L277.74,11a6.89,6.89,0,0,0-12-.09L197.17,127.75a10.19,10.19,0,0,0,8.6,15.39l126.75,2.19A12.61,12.61,0,0,0,343.69,126.46Zm-53.44-3.61-70-9.8a5.73,5.73,0,0,1-3.74-9.11l46-60a3.85,3.85,0,0,1,6.62.86l28.68,68.4A7,7,0,0,1,290.25,122.85Zm45,1.59L276.45,17.17a6.37,6.37,0,0,0-11-.26l-65,106.37a9.39,9.39,0,0,0,7.7,14.27l116.56,4.08A11.61,11.61,0,0,0,335.26,124.44Zm-45-1.59-70-9.8a5.73,5.73,0,0,1-3.74-9.11l46-60a3.85,3.85,0,0,1,6.62.86l28.68,68.4A7,7,0,0,1,290.25,122.85Zm37.32-.39L275.16,22.85a5.84,5.84,0,0,0-10.1-.43L203.53,119.2a8.67,8.67,0,0,0,6.88,13.28l107.14,5.63A10.7,10.7,0,0,0,327.57,122.47Zm-37.32.39-70-9.8a5.73,5.73,0,0,1-3.74-9.11l46-60a3.85,3.85,0,0,1,6.62.86l28.68,68.4A7,7,0,0,1,290.25,122.85Zm30.22-2.32L273.91,28.05a5.41,5.41,0,0,0-9.33-.56l-58.13,88.05a8,8,0,0,0,6.11,12.3L311,134.72A9.79,9.79,0,0,0,320.47,120.53Zm-30.22,2.32-70-9.8a5.73,5.73,0,0,1-3.74-9.11l46-60a3.85,3.85,0,0,1,6.62.86l28.68,68.4A7,7,0,0,1,290.25,122.85ZM314,118.6l-41.4-85.82a4.92,4.92,0,0,0-8.51-.64l-54.9,80.05a7.33,7.33,0,0,0,5.42,11.44l90.46,7.91A9.06,9.06,0,0,0,314,118.6Zm-23.78,4.26-70-9.8a5.73,5.73,0,0,1-3.74-9.11l46-60a3.85,3.85,0,0,1,6.62.86l28.68,68.4A7,7,0,0,1,290.25,122.85Zm17.84-6.1L271.42,37.12a4.58,4.58,0,0,0-7.87-.73l-51.76,72.75a6.76,6.76,0,0,0,4.77,10.62l83.11,8.73A8.31,8.31,0,0,0,308.09,116.75Zm-17.84,6.1-70-9.8a5.73,5.73,0,0,1-3.74-9.11l46-60a3.85,3.85,0,0,1,6.62.86l28.68,68.4A7,7,0,0,1,290.25,122.85Zm12.43-7.91L270.21,41.12a4.2,4.2,0,0,0-7.22-.82l-48.8,66.12a6.19,6.19,0,0,0,4.26,9.8l76.27,9.37A7.66,7.66,0,0,0,302.67,114.94Zm-12.43,7.91-70-9.8a5.73,5.73,0,0,1-3.74-9.11l46-60a3.85,3.85,0,0,1,6.62.86l28.68,68.4A7,7,0,0,1,290.25,122.85Z"/></g></g></svg>