<svg width="34" height="36" viewBox="0 0 34 36" fill="none" xmlns="http://www.w3.org/2000/svg">
<path d="M31.6303 0.600464H2.17822C1.07365 0.600464 0.178223 1.4959 0.178223 2.60046V33.0977C0.178223 34.2023 1.07365 35.0977 2.17822 35.0977H31.6303C32.7348 35.0977 33.6303 34.2023 33.6303 33.0977V2.60046C33.6303 1.49589 32.7348 0.600464 31.6303 0.600464Z" fill="white"/>
<path d="M8.16119 12.1377C8.18912 11.8532 8.08392 11.572 7.87792 11.3805L5.77961 8.77379V8.3844H12.2949L17.3308 19.774L21.7583 8.3844H27.9693V8.77379L26.1752 10.5477C26.0205 10.6692 25.9438 10.8691 25.9759 11.0668V24.1005C25.9438 24.2983 26.0205 24.4981 26.1752 24.6197L27.9273 26.3935V26.7829H19.1144V26.3935L20.9294 24.5764C21.1078 24.3925 21.1078 24.3384 21.1078 24.0572V13.5221L16.0613 26.7397H15.3794L9.50411 13.5221V22.3807C9.45513 22.7531 9.57507 23.1281 9.82935 23.3974L12.19 26.3503V26.7397H5.49634V26.3503L7.85694 23.3974C8.10937 23.1276 8.22232 22.7502 8.16119 22.3807V12.1377Z" fill="black"/>
</svg>
