<svg width="35" height="35" viewBox="0 0 35 35" fill="none" xmlns="http://www.w3.org/2000/svg">
<path fill-rule="evenodd" clip-rule="evenodd" d="M2.27393 34.7C1.16936 34.7 0.273926 33.8046 0.273926 32.7V2.41895C0.273926 1.31438 1.16936 0.418945 2.27393 0.418945H32.495C33.5996 0.418945 34.495 1.31438 34.495 2.41895V32.7C34.495 33.8046 33.5996 34.7 32.495 34.7H2.27393ZM13.4136 26.2659C21.4862 26.2659 25.9007 19.5673 25.9007 13.7588C25.9007 13.5685 25.8969 13.379 25.8882 13.1905C26.745 12.5701 27.49 11.796 28.0776 10.9145C27.2912 11.2644 26.4449 11.5002 25.5572 11.6065C26.4633 11.0624 27.159 10.2013 27.4871 9.17493C26.6389 9.67843 25.7 10.0446 24.7004 10.2418C23.8995 9.38747 22.759 8.85303 21.4969 8.85303C19.073 8.85303 17.1074 10.8217 17.1074 13.2485C17.1074 13.5936 17.146 13.9289 17.2212 14.2508C13.5738 14.0672 10.3394 12.3179 8.17506 9.65812C7.7978 10.3076 7.58072 11.0624 7.58072 11.8674C7.58072 13.3926 8.35552 14.7389 9.53367 15.5265C8.81389 15.5043 8.13749 15.3062 7.54598 14.9766C7.54495 14.9949 7.54495 15.0133 7.54495 15.0326C7.54495 17.1618 9.05801 18.9391 11.066 19.3422C10.6974 19.4426 10.3095 19.4968 9.90905 19.4968C9.62634 19.4968 9.35133 19.4688 9.08402 19.4175C9.64277 21.164 11.2629 22.4348 13.184 22.4707C11.6816 23.6497 9.78942 24.3524 7.7332 24.3524C7.37904 24.3524 7.02976 24.332 6.68622 24.2914C8.62864 25.5381 10.9348 26.2659 13.4136 26.2659Z" fill="white"/>
</svg>
